<svg width="30" height="30" viewBox="0 0 30 30" fill="none" xmlns="http://www.w3.org/2000/svg">
<path d="M24.6437 30H5.35719C2.39875 30 0.00012207 27.6014 0.00012207 24.6429V5.35708C0.00012207 2.39864 2.39875 -1.90735e-06 5.35719 -1.90735e-06H24.6437C27.6021 -1.90735e-06 30.0001 2.39864 30.0001 5.35708V24.6429C30.0001 27.6014 27.6021 30 24.6437 30Z" fill="#1682C5"/>
<path d="M8.19858 21.6851H11.3031V11.6566H8.19858V21.6851Z" fill="white"/>
<path d="M9.73627 10.3435C10.7502 10.3435 11.5719 9.5136 11.5719 8.49203C11.5719 7.47046 10.7502 6.64182 9.73627 6.64182C8.72166 6.64182 7.89998 7.47046 7.89998 8.49203C7.89998 9.5136 8.72166 10.3435 9.73627 10.3435Z" fill="white"/>
<path d="M16.2655 16.421C16.2655 15.011 16.9144 14.171 18.1574 14.171C19.2985 14.171 19.847 14.9769 19.847 16.421C19.847 17.8651 19.847 21.6851 19.847 21.6851H22.937C22.937 21.6851 22.937 18.022 22.937 15.3355C22.937 12.6491 21.4144 11.3504 19.2878 11.3504C17.1605 11.3504 16.2655 13.0071 16.2655 13.0071V11.6566H13.2874V21.6851H16.2655C16.2655 21.6851 16.2655 17.9657 16.2655 16.421Z" fill="white"/>
</svg>
