<svg width="30" height="30" viewBox="0 0 30 30" fill="none" xmlns="http://www.w3.org/2000/svg">
<path d="M24.6429 30H5.35708C2.39801 30 0 27.602 0 24.6429V5.35707C0 2.39863 2.39801 -1.90735e-06 5.35708 -1.90735e-06H24.6429C27.6014 -1.90735e-06 30 2.39863 30 5.35707V24.6429C30 27.602 27.6014 30 24.6429 30Z" fill="#1EB6EA"/>
<path d="M7.00803 20.0215C8.4591 20.952 10.1828 21.4954 12.0343 21.4954C18.1232 21.4954 21.5624 16.3527 21.3555 11.7395C21.9963 11.2778 22.5523 10.7003 22.992 10.0424C22.4037 10.303 21.7711 10.4795 21.1082 10.5586C21.7851 10.1537 22.305 9.51106 22.5498 8.74441C21.9166 9.12014 21.2145 9.39339 20.4681 9.54078C19.8697 8.90317 19.0176 8.5053 18.0739 8.5053C15.9574 8.5053 14.4019 10.4801 14.8795 12.5315C12.1545 12.3949 9.73748 11.0893 8.12068 9.10496C7.26168 10.5794 7.67537 12.5074 9.13593 13.4835C8.59763 13.4664 8.09159 13.3184 7.64943 13.0729C7.61464 14.593 8.70326 16.0137 10.2802 16.3306C9.81845 16.4558 9.31304 16.4843 8.79941 16.3863C9.21626 17.6893 10.4276 18.6369 11.8629 18.6634C10.4845 19.7445 8.74754 20.2271 7.00803 20.0215Z" fill="white"/>
</svg>
