<svg width="25" height="19" viewBox="0 0 25 19" fill="none" xmlns="http://www.w3.org/2000/svg">
<path d="M24.9942 6.90774C25.0504 5.28223 24.6949 3.66889 23.9608 2.21752C23.4627 1.62198 22.7715 1.22009 22.0075 1.08187C18.8476 0.795149 15.6746 0.677631 12.5021 0.729821C9.34122 0.675262 6.17965 0.788988 3.03083 1.07052C2.40829 1.18376 1.83218 1.47576 1.37279 1.91089C0.350706 2.85348 0.237141 4.4661 0.123576 5.82888C-0.0411922 8.27911 -0.0411922 10.7376 0.123576 13.1879C0.156431 13.9549 0.270636 14.7163 0.46427 15.4592C0.601201 16.0327 0.87824 16.5634 1.27058 17.0036C1.73309 17.4618 2.32263 17.7704 2.96269 17.8894C5.41105 18.1917 7.87802 18.3169 10.3444 18.2642C14.3192 18.321 17.8056 18.2642 21.928 17.9462C22.5838 17.8345 23.1899 17.5255 23.6655 17.0604C23.9835 16.7423 24.221 16.353 24.3583 15.9248C24.7644 14.6785 24.9639 13.3742 24.9488 12.0636C24.9942 11.4276 24.9942 7.58913 24.9942 6.90774ZM9.93556 12.745V5.71531L16.6586 9.24717C14.7734 10.292 12.2864 11.473 9.93556 12.745Z" fill="#002F52"/>
</svg>
