<svg width="17" height="16" viewBox="0 0 17 16" fill="none" xmlns="http://www.w3.org/2000/svg">
<path d="M11.0001 9.87511C10.6065 10.3997 10.0578 10.7872 9.4318 10.9826C8.80577 11.1781 8.13412 11.1716 7.51196 10.9642C6.88981 10.7567 6.34869 10.3588 5.96524 9.82673C5.5818 9.29467 5.37546 8.65547 5.37546 7.99964C5.37545 7.34381 5.58178 6.7046 5.96522 6.17254C6.34866 5.64049 6.88978 5.24255 7.51193 5.03509C8.13408 4.82763 8.80573 4.82117 9.43176 5.01662C10.0578 5.21206 10.6065 5.59952 11.0001 6.1241M16 8C16 12.1421 12.6421 15.5 8.5 15.5C4.35786 15.5 1 12.1421 1 8C1 3.85786 4.35786 0.5 8.5 0.5C12.6421 0.5 16 3.85786 16 8Z" stroke="white" stroke-linecap="round" stroke-linejoin="round"/>
</svg>
