<svg width="30" height="30" viewBox="0 0 30 30" fill="none" xmlns="http://www.w3.org/2000/svg">
<path d="M24.643 30H5.35719C2.39875 30 0.00012207 27.6014 0.00012207 24.6429V5.35708C0.00012207 2.39864 2.39875 -1.90735e-06 5.35719 -1.90735e-06H24.643C27.6021 -1.90735e-06 30.0001 2.39864 30.0001 5.35708V24.6429C30.0001 27.6014 27.6021 30 24.643 30Z" fill="#EC2725"/>
<path d="M26.5033 9.18323C26.2276 8.14395 25.4141 7.3248 24.3805 7.04711C22.5082 6.5417 15.0004 6.5417 15.0004 6.5417C15.0004 6.5417 7.49201 6.5417 5.61966 7.04711C4.58671 7.3248 3.77324 8.14395 3.49682 9.18323C2.9952 11.0682 2.99521 15.0002 2.99521 15.0002C2.99521 15.0002 2.9952 18.9321 3.49682 20.8165C3.77324 21.8564 4.58671 22.6749 5.61966 22.9532C7.49201 23.458 15.0004 23.458 15.0004 23.458C15.0004 23.458 22.5082 23.458 24.3805 22.9532C25.4141 22.6749 26.2276 21.8564 26.5033 20.8165C27.005 18.9321 27.005 15.0002 27.005 15.0002C27.005 15.0002 27.005 11.0682 26.5033 9.18323Z" fill="white"/>
<path d="M12.5449 18.5697V11.4301L18.8204 15.0002L12.5449 18.5697Z" fill="#EC2725"/>
</svg>
