<svg width="25" height="25" viewBox="0 0 25 25" fill="none" xmlns="http://www.w3.org/2000/svg">
<path d="M23.75 0H1.25C0.918479 0 0.600537 0.131696 0.366116 0.366116C0.131696 0.600537 0 0.918479 0 1.25V23.75C0 24.0815 0.131696 24.3995 0.366116 24.6339C0.600537 24.8683 0.918479 25 1.25 25H23.75C24.0815 25 24.3995 24.8683 24.6339 24.6339C24.8683 24.3995 25 24.0815 25 23.75V1.25C25 0.918479 24.8683 0.600537 24.6339 0.366116C24.3995 0.131696 24.0815 0 23.75 0ZM19.6488 10.9062C19.5125 10.9196 19.3757 10.9267 19.2388 10.9275C18.4971 10.9285 17.7669 10.7446 17.1142 10.3926C16.4614 10.0406 15.9066 9.53146 15.5 8.91125V15.7775C15.5002 16.7816 15.2027 17.7632 14.645 18.5982C14.0873 19.4332 13.2945 20.084 12.3669 20.4684C11.4393 20.8527 10.4185 20.9534 9.43373 20.7575C8.44892 20.5617 7.5443 20.0782 6.8343 19.3682C6.1243 18.6582 5.64081 17.7536 5.44498 16.7688C5.24915 15.784 5.34978 14.7632 5.73415 13.8356C6.11851 12.908 6.76934 12.1152 7.60432 11.5575C8.43929 10.9998 9.42091 10.7023 10.425 10.7025C10.5312 10.7025 10.6337 10.7125 10.7387 10.7188V13.2188C10.389 13.1764 10.0343 13.206 9.69647 13.3057C9.3586 13.4055 9.0447 13.5733 8.77406 13.7988C8.50342 14.0243 8.28176 14.3028 8.12269 14.6171C7.96363 14.9314 7.87052 15.275 7.84909 15.6266C7.82766 15.9782 7.87837 16.3305 7.99809 16.6618C8.11782 16.9932 8.30403 17.2965 8.54528 17.5532C8.78654 17.8099 9.07774 18.0146 9.40099 18.1546C9.72424 18.2946 10.0727 18.3671 10.425 18.3675C11.1202 18.3801 11.7926 18.1193 12.2975 17.6413C12.8024 17.1632 13.0996 16.5061 13.125 15.8113L13.15 4.1475H15.5425C15.6517 5.18682 16.1229 6.15466 16.8735 6.88175C17.6241 7.60885 18.6065 8.04892 19.6488 8.125V10.9062Z" fill="#002F52"/>
</svg>
