<svg width="25" height="25" viewBox="0 0 25 25" fill="none" xmlns="http://www.w3.org/2000/svg">
<path fill-rule="evenodd" clip-rule="evenodd" d="M19.1667 0H5.83333C2.61167 0 0 2.61167 0 5.83333V19.1667C0 22.3883 2.61167 25 5.83333 25H19.1667C22.3883 25 25 22.3883 25 19.1667V5.83333C25 2.61167 22.3883 0 19.1667 0ZM11.2524 13.6044L9.77923 12.1312C8.88209 11.2341 8.60072 10.5108 9.63192 9.18494C9.92654 8.89031 10.2948 8.37471 10.0002 7.78546L8.08512 4.98649C7.42221 4.17627 7.06026 4.11012 6.53832 4.32358C3.29977 5.64852 3.81302 9.84785 9.33729 15.5194C15.0089 21.0437 19.2082 21.5569 20.5331 18.3184C20.7466 17.7965 20.6805 17.4345 19.8702 16.7716L17.0713 14.8565C16.482 14.5619 15.9664 14.9302 15.6718 15.2248C14.346 16.256 13.6226 15.9746 12.7255 15.0775L11.2524 13.6044Z" fill="#002F52"/>
</svg>
