<svg width="71" height="70" viewBox="0 0 71 70" fill="none" xmlns="http://www.w3.org/2000/svg">
<circle cx="35.6001" cy="35" r="34.5" fill="#E4E4E4" stroke="#E4E4E4"/>
<path fill-rule="evenodd" clip-rule="evenodd" d="M19.3846 48.7409H52.6154C53.3441 48.7409 54 49.3239 54 50.1255V51.5101H18V50.1255C18 49.3239 18.6559 48.7409 19.3846 48.7409ZM36.6559 15.2186L53.0526 27.5344C53.2713 27.753 53.3441 27.9717 53.2713 28.1903C53.1984 28.4818 52.9798 28.6275 52.6883 28.6275H19.3117C19.0202 28.6275 18.8016 28.4818 18.7287 28.1903C18.6559 27.9717 18.7287 27.753 18.9474 27.5344L35.2713 15.2186C35.7085 14.9271 36.2915 14.9271 36.6559 15.2186ZM21.8623 30.0121H50.0648V43.1295H47.0769V34.6032C47.0769 33.3644 46.0567 32.2713 44.7449 32.2713C43.4332 32.2713 42.413 33.3644 42.413 34.6032V43.1295H38.332V34.6032C38.332 33.3644 37.2389 32.2713 36 32.2713C34.6883 32.2713 33.668 33.3644 33.668 34.6032V43.1295H29.587V34.6032C29.587 33.3644 28.4939 32.2713 27.2551 32.2713H27.1822C25.9433 32.2713 24.9231 33.3644 24.9231 34.6032V43.1295H21.8623V30.0121ZM22.081 44.5142H49.8462C50.6478 44.5142 51.2308 45.17 51.2308 45.8988V47.2834H20.6964V45.8988C20.6964 45.17 21.3522 44.5142 22.081 44.5142Z" fill="#B6B6B6"/>
</svg>
