<svg width="90" height="90" viewBox="0 0 90 90" fill="none" xmlns="http://www.w3.org/2000/svg">
<circle cx="45" cy="45" r="45" fill="#E4E4E4"/>
<path d="M45 0C20.1911 0 0 20.1911 0 45C0 55.8203 3.90189 66.2889 10.9766 74.4445C19.5312 84.3316 31.931 90 44.9999 90C57.6432 90 69.7788 84.6354 78.311 75.2645C85.8457 66.9789 89.9999 56.2233 89.9999 45C89.9999 20.1911 69.8089 0 45 0ZM38.0121 29.4311C41.1458 28.9754 43.4331 29.5179 45.6467 30.0301C48.0816 30.5986 50.3906 31.1412 53.1467 30.1863C53.9019 29.9302 54.6701 30.0865 55.1476 30.5986C56.1719 31.6663 57.947 34.1881 58.3377 39.0187C58.3507 39.1967 58.4028 39.3529 58.4592 39.5092C57.2613 45.4206 55.1823 50.6073 53.2031 52.5992C50.4688 55.3335 47.9818 56.6661 45.6163 56.6661C43.2379 56.6661 40.7595 55.3336 38.0165 52.5992C37.8169 52.3995 37.6172 52.1782 37.4176 51.9438C35.4948 49.5654 33.763 45.3118 32.7084 40.4683C32.7648 40.2686 32.7865 40.069 32.7648 39.8476C32.7561 39.7434 31.9227 30.2991 38.0121 29.4311ZM76.9443 71.7533C72.2221 63.4635 62.6643 59.5967 58.7543 58.3067C58.2422 58.1417 57.8342 57.7511 57.6302 57.252L56.3194 54.0835C59.0321 50.6721 60.9636 44.3396 61.9097 39.2402C62.4999 36.0718 64.1319 25.4169 60.3992 21.5058C59.3315 20.3816 57.9427 19.9042 56.4887 20.1169C56.1241 20.0518 55.1432 19.2271 54.4227 18.6282C50.7681 15.5726 43.9452 9.87387 32.4349 19.3747C27.7778 23.2202 27.7473 32.7425 29.2664 40.3647C30.2994 45.5296 32.0312 50.0523 34.1016 53.0558C34.0885 53.0775 34.0668 53.1123 34.0582 53.134L32.3568 57.2572C32.1441 57.7563 31.7448 58.1469 31.2327 58.3119C27.3222 59.601 17.7783 63.4681 13.056 71.7452C6.78871 64.2669 3.33382 54.8008 3.33382 45.0008C3.33382 22.023 22.0227 3.3341 45.0005 3.3341C67.9783 3.3341 86.6672 22.023 86.6672 45.0008C86.6672 54.8359 83.2203 64.2667 76.9443 71.7533Z" fill="#B6B6B6"/>
</svg>
