<svg width="24" height="24" viewBox="0 0 24 24" fill="none" xmlns="http://www.w3.org/2000/svg">
<path fill-rule="evenodd" clip-rule="evenodd" d="M18.1112 0.930829C18.3242 0.717822 18.3242 0.372744 18.1112 0.15975C17.8982 -0.0532432 17.5531 -0.0532569 17.3401 0.15975L15.2548 2.24508C14.9747 2.52517 14.5945 2.68282 14.1972 2.68282H11.1853C8.95825 2.68282 6.82723 3.58703 5.27967 5.18884L1.33062 9.27749C0.623425 10.0092 0.623425 11.1701 1.33062 11.9017C2.06018 12.6568 3.2658 12.6728 4.01452 11.9358L6.54719 9.44471V17.9511H7.63779V8.3721C7.96049 8.05471 8.38119 7.86301 8.83913 7.86301H10.7914L9.0383 9.54897C8.25337 10.303 8.29383 11.6077 9.11605 12.3158C8.86896 12.7759 8.72837 13.302 8.72837 13.8612C8.72837 15.6685 10.1928 17.133 12.0002 17.133C13.8075 17.133 15.2719 15.6685 15.2719 13.8612C15.2719 12.4532 14.3826 11.2529 13.1355 10.7917L14.4732 9.49874C14.6148 9.49874 14.7554 9.49981 14.8971 9.50087C15.2954 9.50407 15.6937 9.50833 16.0899 9.4849V17.9509H17.1805V9.34639C18.7397 9.04073 20.1881 8.28563 21.3384 7.15669L23.8338 4.70711C24.0489 4.49623 24.0521 4.15115 23.8401 3.93603C23.6293 3.72195 23.2842 3.71876 23.0691 3.92964L20.5748 6.37816C18.8569 8.06518 17.1806 8.54444 14.438 8.40812C14.177 8.40812 13.9278 8.50929 13.7404 8.68927L10.8765 11.4572C10.5666 11.7565 10.0734 11.748 9.77415 11.438C9.4738 11.1281 9.4834 10.6339 9.79439 10.3347L11.8744 8.33453C12.4644 7.76793 12.0629 6.77211 11.246 6.77211H8.83905C8.11484 6.77211 7.41937 7.05648 6.90281 7.56448L3.24986 11.158C2.93247 11.469 2.4234 11.4626 2.11558 11.1442C1.8163 10.8342 1.8163 10.3443 2.11558 10.0344L6.06463 5.94683C7.40552 4.55695 9.25435 3.77308 11.1853 3.77308H14.1972C14.8831 3.77308 15.5413 3.50043 16.0259 3.01585L18.1112 0.930829ZM10.1201 12.7548C9.92842 13.0796 9.81871 13.4577 9.81871 13.8614C9.81871 15.0659 10.7953 16.0426 11.9999 16.0426C13.2045 16.0426 14.1811 15.0659 14.1811 13.8614C14.1811 12.726 13.3141 11.7931 12.2054 11.6898L11.6346 12.2425C11.2149 12.6462 10.6569 12.8166 10.1201 12.7548Z" fill="white"/>
<path d="M5.45646 17.9512V14.4067H4.21994C3.30935 14.4067 2.46583 14.9435 2.14844 15.7913L0.13127 21.1706C-0.396988 22.5797 0.74473 23.9492 2.20384 23.9492H21.7972C23.2553 23.9492 24.397 22.5796 23.8687 21.1706L21.8516 15.7913C21.5342 14.9435 20.6907 14.4067 19.7801 14.4067H18.4754C18.403 14.4067 18.3337 14.4206 18.2709 14.4461V17.951H18.8162C19.1176 17.951 19.3615 18.1949 19.3615 18.4963C19.3615 18.7977 19.1176 19.0416 18.8162 19.0416H5.18373C4.88232 19.0416 4.63843 18.7977 4.63843 18.4963C4.63843 18.1949 4.88232 17.951 5.18373 17.951L5.45646 17.9512Z" fill="white"/>
</svg>
