<svg width="30" height="30" viewBox="0 0 30 30" fill="none" xmlns="http://www.w3.org/2000/svg">
<path d="M24.643 30H5.35719C2.39875 30 0.00012207 27.602 0.00012207 24.6429V5.35707C0.00012207 2.39863 2.39875 -1.90735e-06 5.35719 -1.90735e-06H24.643C27.6021 -1.90735e-06 30.0001 2.39863 30.0001 5.35707V24.6429C30.0001 27.602 27.6021 30 24.643 30Z" fill="#33B657"/>
<path fill-rule="evenodd" clip-rule="evenodd" d="M15.1497 21.5276C13.7695 21.5276 12.4873 21.1189 11.4132 20.4117L8.80392 21.2435L9.6509 18.7405C8.83808 17.6285 8.35734 16.2635 8.35734 14.7884C8.35734 14.5689 8.36873 14.3494 8.3915 14.1343C8.72422 10.7223 11.6289 8.04917 15.1497 8.04917C18.716 8.04917 21.6472 10.7906 21.9192 14.2627C21.9344 14.4367 21.942 14.6106 21.942 14.7884C21.942 18.5059 18.8938 21.5276 15.1497 21.5276ZM23.2242 14.584C23.1141 10.2498 19.5446 6.77078 15.1497 6.77078C10.8085 6.77078 7.26809 10.1707 7.07959 14.4367C7.07579 14.5537 7.07199 14.6707 7.07199 14.7884C7.07199 16.3046 7.49517 17.719 8.22893 18.929L6.7728 23.2291L11.2468 21.8072C12.4044 22.4429 13.7353 22.806 15.1497 22.806C19.6123 22.806 23.228 19.2169 23.228 14.7884C23.228 14.7201 23.228 14.6524 23.2242 14.584Z" fill="white"/>
<path fill-rule="evenodd" clip-rule="evenodd" d="M18.8521 16.4071C18.6522 16.3084 17.6799 15.8321 17.4984 15.7676C17.3169 15.6999 17.1847 15.6695 17.0518 15.8663C16.9196 16.0623 16.5376 16.5051 16.4243 16.6342C16.3073 16.7657 16.1934 16.7816 15.9936 16.6829C15.7968 16.5842 15.1573 16.3805 14.4008 15.7068C13.8151 15.1894 13.414 14.5461 13.3002 14.3494C13.1869 14.1527 13.2894 14.047 13.3875 13.949C13.4779 13.8579 13.5842 13.7181 13.686 13.6042C13.7126 13.5707 13.7354 13.5404 13.7581 13.51C13.8037 13.4379 13.8372 13.3702 13.8827 13.2753C13.9511 13.1431 13.9169 13.0299 13.8676 12.9312C13.8189 12.8332 13.4216 11.8647 13.2552 11.4713C13.0927 11.0785 12.9263 11.1462 12.8087 11.1462C12.6955 11.1462 12.5632 11.1272 12.4304 11.1272C12.2982 11.1272 12.0825 11.1765 11.901 11.3733C11.7194 11.57 11.209 12.0463 11.209 13.0147C11.209 13.2412 11.2507 13.4682 11.3114 13.6839C11.5119 14.376 11.9427 14.9472 12.0186 15.0458C12.1167 15.1742 13.3875 17.2237 15.3996 18.0144C17.4149 18.7969 17.4149 18.5363 17.778 18.5021C18.1411 18.4717 18.9507 18.029 19.1133 17.5678C19.2797 17.1105 19.2797 16.717 19.2303 16.6342C19.181 16.5545 19.0488 16.5051 18.8521 16.4071Z" fill="white"/>
</svg>
