<svg width="24" height="24" viewBox="0 0 24 24" fill="none" xmlns="http://www.w3.org/2000/svg">
<path d="M4 7C4 6.73478 3.89464 6.48043 3.70711 6.29289C3.51957 6.10536 3.26522 6 3 6C2.73478 6 2.48043 6.10536 2.29289 6.29289C2.10536 6.48043 2 6.73478 2 7V20C2 20.5304 2.21071 21.0391 2.58579 21.4142C2.96086 21.7893 3.46957 22 4 22H20C20.5304 22 21.0391 21.7893 21.4142 21.4142C21.7893 21.0391 22 20.5304 22 20V7C22 6.73478 21.8946 6.48043 21.7071 6.29289C21.5196 6.10536 21.2652 6 21 6C20.7348 6 20.4804 6.10536 20.2929 6.29289C20.1054 6.48043 20 6.73478 20 7V12H17.66C17.88 11.374 18 10.7 18 10C18 9.002 17.55 8.132 17.006 7.436C16.4503 6.75777 15.8043 6.15887 15.086 5.656C14.2653 5.06668 13.3931 4.55259 12.48 4.12L12.432 4.096L12.418 4.09H12.414L12.412 4.088C12.2831 4.03005 12.1433 4.00009 12.002 4.00009C11.8607 4.00009 11.7209 4.03005 11.592 4.088L11.586 4.09L11.572 4.096L11.524 4.12L11.35 4.202C10.4992 4.61658 9.68499 5.1023 8.916 5.654C8.19758 6.15748 7.55157 6.75706 6.996 7.436C6.45 8.132 6 9.002 6 10C6 10.7 6.12 11.374 6.34 12H4V7ZM15.464 12H8.536C8.18489 11.3919 8.00003 10.7022 8 10C8 9.616 8.176 9.172 8.568 8.67C8.958 8.174 9.502 7.698 10.088 7.274C10.6951 6.83898 11.3343 6.45053 12 6.112C12.6644 6.45416 13.3039 6.84244 13.914 7.274C14.498 7.698 15.042 8.174 15.432 8.67C15.824 9.172 16 9.616 16 10C16 10.728 15.806 11.412 15.464 12ZM20 20H15V18C15 17.2044 14.6839 16.4413 14.1213 15.8787C13.5587 15.3161 12.7956 15 12 15C11.2044 15 10.4413 15.3161 9.87868 15.8787C9.31607 16.4413 9 17.2044 9 18V20H4V14H20V20ZM13 18V20H11V18C11 17.7348 11.1054 17.4804 11.2929 17.2929C11.4804 17.1054 11.7348 17 12 17C12.2652 17 12.5196 17.1054 12.7071 17.2929C12.8946 17.4804 13 17.7348 13 18ZM4.5 3.5C4.5 3.89782 4.34196 4.27936 4.06066 4.56066C3.77936 4.84196 3.39782 5 3 5C2.60218 5 2.22064 4.84196 1.93934 4.56066C1.65804 4.27936 1.5 3.89782 1.5 3.5C1.5 3.10218 1.65804 2.72064 1.93934 2.43934C2.22064 2.15804 2.60218 2 3 2C3.39782 2 3.77936 2.15804 4.06066 2.43934C4.34196 2.72064 4.5 3.10218 4.5 3.5ZM21 5C21.197 5 21.392 4.9612 21.574 4.88582C21.756 4.81044 21.9214 4.69995 22.0607 4.56066C22.1999 4.42137 22.3104 4.25601 22.3858 4.07403C22.4612 3.89204 22.5 3.69698 22.5 3.5C22.5 3.30302 22.4612 3.10796 22.3858 2.92597C22.3104 2.74399 22.1999 2.57863 22.0607 2.43934C21.9214 2.30005 21.756 2.18956 21.574 2.11418C21.392 2.0388 21.197 2 21 2C20.6022 2 20.2206 2.15804 19.9393 2.43934C19.658 2.72064 19.5 3.10218 19.5 3.5C19.5 3.89782 19.658 4.27936 19.9393 4.56066C20.2206 4.84196 20.6022 5 21 5Z" fill="#4E4E4E"/>
</svg>
