<svg width="30" height="30" viewBox="0 0 30 30" fill="none" xmlns="http://www.w3.org/2000/svg">
<mask id="mask0_114_2033" style="mask-type:luminance" maskUnits="userSpaceOnUse" x="0" y="0" width="31" height="30">
<path d="M24.643 30H5.3572C2.39851 30 0 27.602 0 24.6429V5.35707C0 2.39863 2.39851 -1.90735e-06 5.3572 -1.90735e-06H24.643C27.6015 -1.90735e-06 30.0001 2.39863 30.0001 5.35707V24.6429C30.0001 27.602 27.6015 30 24.643 30Z" fill="white"/>
</mask>
<g mask="url(#mask0_114_2033)">
<path d="M24.643 30H5.3572C2.39851 30 0 27.602 0 24.6429V5.35707C0 2.39863 2.39851 -1.90735e-06 5.3572 -1.90735e-06H24.643C27.6015 -1.90735e-06 30.0001 2.39863 30.0001 5.35707V24.6429C30.0001 27.602 27.6015 30 24.643 30Z" fill="url(#paint0_radial_114_2033)"/>
</g>
<path d="M15 6.77512C12.7664 6.77512 12.4864 6.78524 11.609 6.82509C10.7338 6.86494 10.1358 7.0041 9.61272 7.20715C9.07183 7.41716 8.61323 7.69864 8.15589 8.15598C7.69875 8.61331 7.41733 9.07191 7.20757 9.61275C7.00421 10.1359 6.86486 10.7336 6.82507 11.6091C6.78503 12.4864 6.77567 12.766 6.77567 15.0002C6.77567 17.2337 6.78503 17.5139 6.82507 18.3913C6.86486 19.2667 7.00421 19.8645 7.20757 20.387C7.41733 20.9285 7.69875 21.387 8.15589 21.8444C8.61323 22.3017 9.07183 22.5826 9.61272 22.7926C10.1358 22.9963 10.7338 23.1354 11.609 23.1753C12.4864 23.2151 12.7664 23.2246 15 23.2246C17.2338 23.2246 17.5137 23.2151 18.3911 23.1753C19.2665 23.1354 19.8643 22.9963 20.3873 22.7926C20.9285 22.5826 21.3871 22.3017 21.8442 21.8444C22.3016 21.387 22.5827 20.9285 22.7927 20.387C22.9961 19.8645 23.1353 19.2667 23.1752 18.3913C23.215 17.5139 23.2245 17.2337 23.2245 15.0002C23.2245 12.766 23.215 12.4864 23.1752 11.6091C23.1353 10.7336 22.9961 10.1359 22.7927 9.61275C22.5827 9.07191 22.3016 8.61331 21.8442 8.15598C21.3871 7.69864 20.9285 7.41716 20.3873 7.20715C19.8643 7.0041 19.2665 6.86494 18.3911 6.82509C17.5137 6.78524 17.2338 6.77512 15 6.77512ZM15 8.25719C17.1962 8.25719 17.4561 8.26605 18.3234 8.30527C19.1252 8.34196 19.5609 8.47606 19.8507 8.58865C20.2346 8.73793 20.5087 8.91568 20.7963 9.20349C21.0842 9.4913 21.2623 9.76519 21.4116 10.1491C21.5242 10.4395 21.6581 10.8747 21.6947 11.6768C21.7342 12.544 21.7429 12.804 21.7429 15.0002C21.7429 17.1964 21.7342 17.4564 21.6947 18.3236C21.6581 19.1257 21.5242 19.5609 21.4116 19.8506C21.2623 20.2345 21.0842 20.5084 20.7963 20.7963C20.5087 21.0841 20.2346 21.2624 19.8507 21.4117C19.5609 21.5243 19.1252 21.6584 18.3234 21.6945C17.4561 21.7343 17.1964 21.7425 15 21.7425C12.8037 21.7425 12.544 21.7343 11.6767 21.6945C10.8748 21.6584 10.4393 21.5243 10.1496 21.4117C9.76542 21.2624 9.49165 21.0841 9.20377 20.7963C8.91615 20.5084 8.73778 20.2345 8.58856 19.8506C8.47609 19.5609 8.34192 19.1257 8.30536 18.3236C8.26583 17.4564 8.25742 17.1964 8.25742 15.0002C8.25742 12.804 8.26583 12.544 8.30536 11.6768C8.34192 10.8747 8.47609 10.4395 8.58856 10.1491C8.73778 9.76519 8.91615 9.4913 9.20377 9.20349C9.49165 8.91568 9.76542 8.73793 10.1496 8.58865C10.4393 8.47606 10.8748 8.34196 11.6767 8.30527C12.544 8.26605 12.8041 8.25719 15 8.25719Z" fill="white"/>
<path d="M15 17.7418C13.4859 17.7418 12.2585 16.514 12.2585 15.0003C12.2585 13.486 13.4859 12.2589 15 12.2589C16.5142 12.2589 17.7415 13.486 17.7415 15.0003C17.7415 16.514 16.5142 17.7418 15 17.7418ZM15 10.7768C12.6677 10.7768 10.7768 12.6675 10.7768 15.0003C10.7768 17.3325 12.6677 19.2239 15 19.2239C17.3326 19.2239 19.2236 17.3325 19.2236 15.0003C19.2236 12.6675 17.3326 10.7768 15 10.7768Z" fill="white"/>
<path d="M20.3776 10.6098C20.3776 11.155 19.9355 11.5972 19.3904 11.5972C18.8453 11.5972 18.4036 11.155 18.4036 10.6098C18.4036 10.0645 18.8453 9.62298 19.3904 9.62298C19.9355 9.62298 20.3776 10.0645 20.3776 10.6098Z" fill="white"/>
<defs>
<radialGradient id="paint0_radial_114_2033" cx="0" cy="0" r="1" gradientUnits="userSpaceOnUse" gradientTransform="translate(-0.750458 30.0999) rotate(-43.8767) scale(55.467)">
<stop stop-color="#ECEF39"/>
<stop offset="0.241206" stop-color="#F4713C"/>
<stop offset="0.488797" stop-color="#ED2981"/>
<stop offset="1" stop-color="#3252AC"/>
</radialGradient>
</defs>
</svg>
