<svg width="30" height="30" viewBox="0 0 30 30" fill="none" xmlns="http://www.w3.org/2000/svg">
<path d="M24.6431 30H5.35716C2.39851 30 0 27.602 0 24.6429V5.35707C0 2.39863 2.39851 -1.90735e-06 5.35716 -1.90735e-06H24.6431C27.6015 -1.90735e-06 30 2.39863 30 5.35707V24.6429C30 27.602 27.6015 30 24.6431 30Z" fill="#345EA9"/>
<path d="M12.7145 24.0667H16.3658V14.9231H18.9133L19.1851 11.8616H16.3658C16.3658 11.8616 16.3658 10.7186 16.3658 10.1176C16.3658 9.39589 16.5108 9.11062 17.2089 9.11062C17.7702 9.11062 19.1851 9.11062 19.1851 9.11062V5.93331C19.1851 5.93331 17.1016 5.93331 16.6566 5.93331C13.9396 5.93331 12.7145 7.13009 12.7145 9.42056C12.7145 11.4156 12.7145 11.8616 12.7145 11.8616H10.8152V14.9611H12.7145V24.0667Z" fill="white"/>
</svg>
