<svg width="24" height="25" viewBox="0 0 24 25" fill="none" xmlns="http://www.w3.org/2000/svg">
<path d="M3 7.5C3 5.61438 3 4.67157 3.58579 4.08579C4.17157 3.5 5.11438 3.5 7 3.5H17C18.8856 3.5 19.8284 3.5 20.4142 4.08579C21 4.67157 21 5.61438 21 7.5V17.5C21 19.3856 21 20.3284 20.4142 20.9142C19.8284 21.5 18.8856 21.5 17 21.5H7C5.11438 21.5 4.17157 21.5 3.58579 20.9142C3 20.3284 3 19.3856 3 17.5V7.5Z" stroke="white"/>
<path d="M3 12.5V12.5C3 13.4319 3 13.8978 3.15224 14.2654C3.35523 14.7554 3.74458 15.1448 4.23463 15.3478C4.60218 15.5 5.06812 15.5 6 15.5H6.67544C7.25646 15.5 7.54696 15.5 7.77888 15.6338C7.83745 15.6675 7.89245 15.7072 7.94303 15.7521C8.14326 15.9298 8.23513 16.2054 8.41886 16.7566L8.54415 17.1325C8.76416 17.7925 8.87416 18.1225 9.13605 18.3112C9.39794 18.5 9.7458 18.5 10.4415 18.5H13.5585C14.2542 18.5 14.6021 18.5 14.864 18.3112C15.1258 18.1225 15.2358 17.7925 15.4558 17.1325L15.5811 16.7566C15.7649 16.2054 15.8567 15.9298 16.057 15.7521C16.1075 15.7072 16.1625 15.6675 16.2211 15.6338C16.453 15.5 16.7435 15.5 17.3246 15.5H18C18.9319 15.5 19.3978 15.5 19.7654 15.3478C20.2554 15.1448 20.6448 14.7554 20.8478 14.2654C21 13.8978 21 13.4319 21 12.5V12.5" stroke="white"/>
<path d="M9.5 11L12 13.5M12 13.5L14.5 11M12 13.5L12 6.5" stroke="white"/>
</svg>
