<svg width="24" height="26" viewBox="0 0 24 26" fill="none" xmlns="http://www.w3.org/2000/svg">
<path d="M21.3548 9.51613H18.6452C17.5767 9.51745 16.711 10.3831 16.7097 11.4516V13.7742H15.5484V6.03226H19.0323C20.1007 6.03094 20.9664 5.16526 20.9677 4.09677V1.3871C20.9677 1.17332 20.7944 1 20.5806 1H17.871C16.8025 1.00132 15.9368 1.867 15.9355 2.93548V5.25806H15.5484C15.4798 5.25977 15.4129 5.28037 15.3548 5.31723C15.2968 5.28037 15.2299 5.25977 15.1613 5.25806C14.9475 5.25806 14.7742 5.43139 14.7742 5.64516V10.6774H13.6129V8.35484C13.6116 7.28635 12.7459 6.42068 11.6774 6.41936H8.96774C8.75397 6.41936 8.58064 6.59268 8.58064 6.80645V9.51613C8.58197 10.5846 9.44764 11.4503 10.5161 11.4516H14.7742V16.4839H8.58064V13.3871C8.58064 13.1733 8.40732 13 8.19355 13H7.03226V10.6774C7.03093 9.60894 6.16526 8.74326 5.09677 8.74194H2.3871C2.17332 8.74194 2 8.91526 2 9.12903V11.8387C2.00132 12.9072 2.867 13.7729 3.93548 13.7742H7.80645V16.4839H3.16129C2.94752 16.4839 2.77419 16.6572 2.77419 16.871V24.6129C2.77419 24.8267 2.94752 25 3.16129 25H18.6452C18.8589 25 19.0323 24.8267 19.0323 24.6129V16.871C19.0323 16.6572 18.8589 16.4839 18.6452 16.4839H15.5484V14.5484H19.8064C20.8749 14.5471 21.7406 13.6814 21.7419 12.6129V9.90323C21.7419 9.68945 21.5686 9.51613 21.3548 9.51613ZM16.7097 2.93548C16.7097 2.29417 17.2296 1.77419 17.871 1.77419H20.1935V4.09677C20.1935 4.73809 19.6736 5.25806 19.0323 5.25806H16.7097V2.93548ZM9.35484 9.51613V7.19355H11.6774C12.3187 7.19355 12.8387 7.71352 12.8387 8.35484V10.6774H10.5161C9.87481 10.6774 9.35484 10.1574 9.35484 9.51613ZM2.77419 11.8387V9.51613H5.09677C5.73809 9.51613 6.25806 10.0361 6.25806 10.6774V13H3.93548C3.29417 13 2.77419 12.48 2.77419 11.8387ZM3.54839 17.2581H4.66091C4.51896 17.803 4.09331 18.2285 3.54839 18.3702V17.2581ZM3.54839 24.2258V23.1137C4.09331 23.2554 4.51896 23.6809 4.66091 24.2258H3.54839ZM18.2581 24.2258H17.1455C17.2875 23.6809 17.7131 23.2554 18.2581 23.1137V24.2258ZM18.2581 17.2581V18.3702C17.7131 18.2285 17.2875 17.803 17.1455 17.2581H18.2581ZM16.3574 17.2581C16.5237 18.2307 17.2854 18.9924 18.2581 19.1588V22.3251C17.2854 22.4914 16.5237 23.2532 16.3574 24.2258H5.44909C5.28276 23.2532 4.52104 22.4914 3.54839 22.3251V19.1588C4.52104 18.9924 5.28276 18.2307 5.44909 17.2581H16.3574ZM20.9677 12.6129C20.9677 13.2542 20.4478 13.7742 19.8064 13.7742H17.4839V11.4516C17.4839 10.8103 18.0038 10.2903 18.6452 10.2903H20.9677V12.6129Z" fill="#45AF63" stroke="#45AF63" stroke-width="0.25"/>
<path d="M10.9036 23.0645C12.1863 23.0645 13.2262 22.0245 13.2262 20.7419C13.2262 19.4593 12.1863 18.4193 10.9036 18.4193C9.621 18.4193 8.58105 19.4593 8.58105 20.7419C8.58238 22.0242 9.62138 23.0631 10.9036 23.0645ZM10.9036 19.1935C11.7587 19.1935 12.452 19.8868 12.452 20.7419C12.452 21.597 11.7587 22.2903 10.9036 22.2903C10.0485 22.2903 9.35525 21.597 9.35525 20.7419C9.35525 19.8868 10.0485 19.1935 10.9036 19.1935Z" fill="#45AF63" stroke="#45AF63" stroke-width="0.25"/>
<path d="M14.3871 20.742H17.0968C17.3105 20.742 17.4839 20.5686 17.4839 20.3549C17.4839 20.1411 17.3105 19.9678 17.0968 19.9678H14.3871C14.1733 19.9678 14 20.1411 14 20.3549C14 20.5686 14.1733 20.742 14.3871 20.742Z" fill="#45AF63" stroke="#45AF63" stroke-width="0.25"/>
<path d="M14.3871 21.9033H15.1613C15.3751 21.9033 15.5484 21.73 15.5484 21.5162C15.5484 21.3024 15.3751 21.1291 15.1613 21.1291H14.3871C14.1733 21.1291 14 21.3024 14 21.5162C14 21.73 14.1733 21.9033 14.3871 21.9033Z" fill="#45AF63" stroke="#45AF63" stroke-width="0.25"/>
<path d="M16.1756 21.16C16.1282 21.1787 16.0849 21.2063 16.0478 21.2413C15.9771 21.3154 15.9371 21.4137 15.9355 21.5161C15.9352 21.6189 15.9756 21.7178 16.0478 21.7909C16.2005 21.9406 16.4447 21.9406 16.5975 21.7909C16.6697 21.7178 16.7101 21.6189 16.7097 21.5161C16.7082 21.4137 16.6682 21.3154 16.5975 21.2413C16.4861 21.1315 16.3196 21.0993 16.1756 21.16Z" fill="#45AF63" stroke="#45AF63" stroke-width="0.25"/>
</svg>
