<svg width="25" height="25" viewBox="0 0 25 25" fill="none" xmlns="http://www.w3.org/2000/svg">
<path d="M14.4953 5.23289C14.2862 5.15679 14.0592 5.14439 13.8431 5.19728C13.627 5.25016 13.4314 5.36595 13.281 5.53C13.1307 5.69405 13.0324 5.899 12.9986 6.11892C12.9647 6.33884 12.9968 6.56386 13.0909 6.76552C13.1849 6.96718 13.3367 7.13642 13.5269 7.25185C13.7171 7.36728 13.9373 7.42371 14.1596 7.414C14.3819 7.40429 14.5963 7.32887 14.7758 7.19729C14.9552 7.06572 15.0916 6.88388 15.1677 6.67479C15.2697 6.39442 15.2562 6.085 15.1301 5.81459C15.004 5.54419 14.7757 5.33495 14.4953 5.23289ZM14.4627 6.41829C14.4373 6.48797 14.3919 6.54858 14.3322 6.59247C14.2724 6.63635 14.201 6.66154 14.1269 6.66484C14.0529 6.66815 13.9795 6.64942 13.916 6.61104C13.8526 6.57265 13.802 6.51632 13.7706 6.44917C13.7391 6.38202 13.7283 6.30706 13.7395 6.23377C13.7506 6.16047 13.7833 6.09213 13.8333 6.03737C13.8832 5.98262 13.9483 5.94391 14.0203 5.92614C14.0923 5.90837 14.1679 5.91233 14.2377 5.93753C14.284 5.95429 14.3266 5.98002 14.363 6.01326C14.3995 6.0465 14.429 6.0866 14.4499 6.13125C14.4708 6.1759 14.4826 6.22424 14.4848 6.27349C14.487 6.32274 14.4795 6.37195 14.4627 6.41829Z" fill="white" stroke="white" stroke-width="0.25"/>
<path d="M12.6251 20.375C12.9218 20.375 13.2118 20.2871 13.4585 20.1222C13.7052 19.9574 13.8974 19.7231 14.011 19.4491C14.1245 19.175 14.1542 18.8734 14.0963 18.5824C14.0385 18.2914 13.8956 18.0241 13.6858 17.8143C13.476 17.6046 13.2088 17.4617 12.9178 17.4038C12.6268 17.3459 12.3252 17.3756 12.0511 17.4892C11.777 17.6027 11.5427 17.795 11.3779 18.0417C11.2131 18.2883 11.1251 18.5783 11.1251 18.875C11.1251 19.2729 11.2832 19.6544 11.5645 19.9357C11.8458 20.217 12.2273 20.375 12.6251 20.375ZM12.6251 18.125C12.7735 18.125 12.9185 18.169 13.0418 18.2514C13.1652 18.3338 13.2613 18.451 13.3181 18.588C13.3748 18.7251 13.3897 18.8759 13.3607 19.0213C13.3318 19.1668 13.2604 19.3005 13.1555 19.4054C13.0506 19.5102 12.917 19.5817 12.7715 19.6106C12.626 19.6396 12.4752 19.6247 12.3381 19.5679C12.2011 19.5112 12.0839 19.415 12.0015 19.2917C11.9191 19.1684 11.8751 19.0234 11.8751 18.875C11.8751 18.6761 11.9542 18.4853 12.0948 18.3447C12.2355 18.204 12.4262 18.125 12.6251 18.125Z" fill="white" stroke="white" stroke-width="0.25"/>
<path d="M9.59855 20.1286V21.5266C9.59855 21.6261 9.63806 21.7215 9.70839 21.7918C9.77872 21.8621 9.8741 21.9016 9.97356 21.9016H11.3716L12.3601 22.8902C12.4304 22.9605 12.5258 23 12.6252 23C12.7247 23 12.82 22.9605 12.8903 22.8902L13.8789 21.9016H15.2769C15.3763 21.9016 15.4717 21.8621 15.5421 21.7918C15.6124 21.7215 15.6519 21.6261 15.6519 21.5266V20.1286L16.6404 19.1401C16.7107 19.0698 16.7502 18.9744 16.7502 18.875C16.7502 18.7755 16.7107 18.6802 16.6404 18.6098L15.6519 17.6213V16.2233C15.6519 16.1239 15.6124 16.0285 15.5421 15.9581C15.4717 15.8878 15.3763 15.8483 15.2769 15.8483H13.8789L12.8903 14.8598C12.82 14.7895 12.7247 14.75 12.6252 14.75C12.5258 14.75 12.4304 14.7895 12.3601 14.8598L11.3716 15.8483H9.97356C9.8741 15.8483 9.77872 15.8878 9.70839 15.9581C9.63806 16.0285 9.59855 16.1239 9.59855 16.2233V17.6213L8.61004 18.6098C8.53974 18.6802 8.50024 18.7755 8.50024 18.875C8.50024 18.9744 8.53974 19.0698 8.61004 19.1401L9.59855 20.1286ZM10.2387 18.0417C10.2736 18.0069 10.3012 17.9655 10.3201 17.9199C10.3389 17.8743 10.3486 17.8255 10.3486 17.7762V16.5983H11.5268C11.6263 16.5983 11.7216 16.5588 11.792 16.4884L12.6252 15.6552L13.4585 16.4884C13.5288 16.5588 13.6242 16.5983 13.7236 16.5983H14.9019V17.7762C14.9018 17.8255 14.9115 17.8743 14.9304 17.9199C14.9492 17.9655 14.9769 18.0069 15.0118 18.0417L15.845 18.875L15.0118 19.7082C14.9414 19.7785 14.9019 19.8739 14.9019 19.9734V21.1516H13.7236C13.6242 21.1517 13.5288 21.1912 13.4585 21.2615L12.6252 22.0948L11.792 21.2615C11.7216 21.1912 11.6263 21.1517 11.5268 21.1516H10.3486V19.9734C10.3485 19.8739 10.309 19.7785 10.2387 19.7082L9.40543 18.875L10.2387 18.0417Z" fill="white" stroke="white" stroke-width="0.25"/>
<path d="M24.2334 13.5124L22.3584 7.51227C22.3345 7.43608 22.2868 7.36953 22.2224 7.32231C22.158 7.2751 22.0802 7.24968 22.0003 7.24976H18.9492L20.1024 4.08135C20.1192 4.03501 20.1268 3.98581 20.1246 3.93655C20.1224 3.8873 20.1105 3.83896 20.0896 3.79431C20.0687 3.74966 20.0392 3.70956 20.0028 3.67632C19.9664 3.64308 19.9238 3.61735 19.8774 3.60059L11.421 0.522548C11.3747 0.50571 11.3255 0.498175 11.2762 0.500373C11.227 0.502571 11.1786 0.514459 11.134 0.535358C11.0893 0.556257 11.0492 0.585755 11.016 0.622166C10.9828 0.658577 10.957 0.701184 10.9403 0.747552L8.57511 7.24976H3.25003C3.17017 7.24968 3.09236 7.2751 3.02794 7.32231C2.96352 7.36953 2.91586 7.43608 2.8919 7.51227L1.01688 13.5124C1.00556 13.5488 0.999873 13.5867 1 13.6249V24.125C1 24.2245 1.03951 24.3198 1.10984 24.3902C1.18017 24.4605 1.27555 24.5 1.37501 24.5H23.8753C23.9748 24.5 24.0702 24.4605 24.1405 24.3902C24.2108 24.3198 24.2503 24.2245 24.2503 24.125V13.6249C24.2504 13.5867 24.2448 13.5488 24.2334 13.5124ZM11.517 1.35543L19.2695 4.17697L16.7877 10.9998H15.9882L17.795 6.03512C17.8118 5.98879 17.8194 5.93958 17.8172 5.89033C17.815 5.84108 17.8031 5.79274 17.7822 5.74809C17.7613 5.70343 17.7318 5.66334 17.6954 5.6301C17.659 5.59686 17.6163 5.57112 17.57 5.55437C17.4772 5.52085 17.392 5.46938 17.3192 5.4029C17.2464 5.33642 17.1874 5.25623 17.1456 5.16693C17.1038 5.07762 17.08 4.98095 17.0756 4.88244C17.0712 4.78394 17.0863 4.68553 17.12 4.59285C17.1368 4.54654 17.1442 4.49737 17.142 4.44816C17.1398 4.39895 17.1279 4.35066 17.107 4.30605C17.0861 4.26144 17.0566 4.22138 17.0202 4.18817C16.9839 4.15495 16.9413 4.12923 16.895 4.11247L13.3752 2.82995C13.3288 2.81312 13.2796 2.80558 13.2304 2.80778C13.1811 2.80998 13.1328 2.82187 13.0881 2.84276C13.0435 2.86366 13.0034 2.89316 12.9701 2.92957C12.9369 2.96598 12.9112 3.00859 12.8944 3.05496C12.8609 3.14765 12.8094 3.23282 12.743 3.30561C12.6765 3.37841 12.5964 3.43738 12.5071 3.47918C12.4179 3.52097 12.3212 3.54476 12.2228 3.54918C12.1243 3.55361 12.0259 3.53858 11.9333 3.50496C11.8869 3.48813 11.8377 3.48059 11.7885 3.48279C11.7392 3.48499 11.6909 3.49688 11.6462 3.51777C11.6016 3.53867 11.5615 3.56817 11.5283 3.60458C11.495 3.64099 11.4693 3.6836 11.4525 3.72997L8.80461 10.9998H8.0066L11.517 1.35543ZM17.8572 10.2498H18.6252C18.7247 10.2498 18.8201 10.2893 18.8904 10.3596C18.9607 10.43 19.0002 10.5254 19.0002 10.6248C19.0002 10.7243 18.9607 10.8197 18.8904 10.89C18.8201 10.9603 18.7247 10.9998 18.6252 10.9998H17.5842L17.8572 10.2498ZM16.9782 6.08725L15.1898 10.9998H9.60224L12.0443 4.2906C12.311 4.3158 12.5795 4.26941 12.8223 4.15623C13.0651 4.04305 13.2733 3.86717 13.4254 3.64672L16.3336 4.70498C16.3082 4.97191 16.3546 5.24077 16.4679 5.48378C16.5813 5.72678 16.7574 5.93512 16.9782 6.08725ZM3.52566 7.99977H8.3006L7.75459 9.49979H6.62508C6.32671 9.49979 6.04055 9.61832 5.82957 9.8293C5.61859 10.0403 5.50006 10.3264 5.50006 10.6248C5.50006 10.9232 5.61859 11.2093 5.82957 11.4203C6.04055 11.6313 6.32671 11.7498 6.62508 11.7498H18.6252C18.9236 11.7498 19.2098 11.6313 19.4207 11.4203C19.6317 11.2093 19.7503 10.9232 19.7503 10.6248C19.7503 10.3264 19.6317 10.0403 19.4207 9.8293C19.2098 9.61832 18.9236 9.49979 18.6252 9.49979H18.1302L18.6762 7.99977H21.7247L23.3653 13.2498H1.88501L3.52566 7.99977ZM7.48159 10.2498L7.20859 10.9998H6.62508C6.52562 10.9998 6.43024 10.9603 6.35991 10.89C6.28958 10.8197 6.25007 10.7243 6.25007 10.6248C6.25007 10.5254 6.28958 10.43 6.35991 10.3596C6.43024 10.2893 6.52562 10.2498 6.62508 10.2498H7.48159ZM23.5003 23.75H1.75001V13.9999H23.5003V23.75Z" fill="white" stroke="white" stroke-width="0.25"/>
</svg>
