<svg width="24" height="24" viewBox="0 0 24 24" fill="none" xmlns="http://www.w3.org/2000/svg">
<path d="M17.9999 14.5715C18.0058 14.5711 18.0108 14.5707 18.0171 14.5715C18.4904 14.5715 18.8742 14.1877 18.8742 13.7144C18.8742 13.3578 18.6566 13.0523 18.3469 12.923L9.86969 7.83665C9.59765 7.67343 9.25948 7.67343 8.98744 7.83665L0.416085 12.9795C0.0858706 13.1774 -0.0714941 13.5721 0.0310441 13.9433C0.134001 14.3146 0.471749 14.5715 0.857209 14.5715H1.71434V19.7143C1.34521 19.7143 1.01792 19.9504 0.901154 20.3003L0.0440183 22.8717C-0.0430345 23.1333 0.000910423 23.4204 0.162042 23.6439C0.323173 23.8678 0.581821 24 0.857209 24H17.9999C18.0058 23.9992 18.0108 23.9996 18.0171 24C18.4904 24 18.8742 23.6162 18.8742 23.1429C18.8742 22.9884 18.8332 22.8436 18.762 22.7185L17.956 20.3003C17.8392 19.9504 17.5119 19.7143 17.1428 19.7143V14.5715H17.9999ZM9.42856 9.57101L14.9054 12.8573H3.95177L9.42856 9.57101ZM12 19.7143H10.2857V14.5715H12V19.7143ZM6.85716 14.5715H8.57143V19.7143H6.85716V14.5715ZM3.42862 14.5715H5.14289V19.7143H3.42862V14.5715ZM2.04623 22.2857L2.33208 21.4286H16.525L16.8109 22.2857H2.04623ZM15.4285 19.7143H13.7142V14.5715H15.4285V19.7143Z" fill="#45AF63"/>
<path d="M23.4436 2.62602L16.5865 0.0546172C16.3924 -0.0182058 16.1789 -0.0182058 15.9847 0.0546172L9.12763 2.62602C8.79323 2.75158 8.57141 3.07133 8.57141 3.42875C8.57141 3.78617 8.79323 4.10592 9.12763 4.23148L11.1428 4.98717V7.71443C11.1428 8.06473 11.3563 8.37988 11.6815 8.51046L15.9671 10.2247C16.0697 10.2653 16.1777 10.2858 16.2856 10.2858C16.3936 10.2858 16.5016 10.2653 16.6041 10.2247L20.8898 8.51046C21.215 8.37988 21.4284 8.06473 21.4284 7.71443V4.98717L22.2856 4.66575V9.4287C22.2856 9.90205 22.6694 10.2858 23.1427 10.2858C23.6161 10.2858 23.9998 9.90205 23.9998 9.4287V3.42875C23.9998 3.07133 23.778 2.75158 23.4436 2.62602ZM16.2856 1.77265L20.7015 3.42875L16.2856 5.08485L11.8698 3.42875L16.2856 1.77265ZM19.7142 7.13394L16.2856 8.50544L12.8571 7.13394V5.63003L15.9847 6.80288C16.0818 6.8393 16.1835 6.85729 16.2856 6.85729C16.3877 6.85729 16.4894 6.8393 16.5865 6.80288L19.7142 5.63003V7.13394Z" fill="#45AF63"/>
</svg>
