<svg width="25" height="24" viewBox="0 0 25 24" fill="none" xmlns="http://www.w3.org/2000/svg">
<path d="M16.9532 24H7.25106C6.68936 24 6.22979 23.5404 6.22979 22.9787V5.10638C6.22979 4.54468 6.68936 4.08511 7.25106 4.08511H16.9532C17.5149 4.08511 17.9745 4.54468 17.9745 5.10638V22.9787C17.9745 23.5404 17.5149 24 16.9532 24ZM8.27234 22.0085H15.983V6.12766H8.27234V22.0085Z" fill="#4E4E4E"/>
<path d="M22.2128 24H2.19574C1.63404 24 1.17447 23.5404 1.17447 22.9787V7.50638C1.17447 6.94468 1.63404 6.48511 2.19574 6.48511H6.6383C7.2 6.48511 7.65957 6.94468 7.65957 7.50638C7.65957 8.06808 7.2 8.52766 6.6383 8.52766H3.21702V22.0085H21.1915V8.52766H17.2596C16.6979 8.52766 16.2383 8.06808 16.2383 7.50638C16.2383 6.94468 16.6979 6.48511 17.2596 6.48511H22.2128C22.7745 6.48511 23.234 6.94468 23.234 7.50638V22.9787C23.183 23.5404 22.7745 24 22.2128 24Z" fill="#4E4E4E"/>
<path d="M15.9319 5.82128C15.3702 5.82128 14.9106 5.3617 14.9106 4.8C14.9106 3.26808 13.634 1.99149 12.1021 1.99149C10.5702 1.99149 9.29362 3.26808 9.29362 4.8C9.29362 5.3617 8.83404 5.82128 8.27234 5.82128C7.71064 5.82128 7.25106 5.3617 7.25106 4.8C7.25106 2.14468 9.39574 0 12.0511 0C14.7064 0 16.8511 2.14468 16.8511 4.8C16.9021 5.3617 16.4426 5.82128 15.9319 5.82128Z" fill="#4E4E4E"/>
<path d="M22.9787 24H1.02128C0.459574 24 0 23.5404 0 22.9787C0 22.417 0.459574 21.9574 1.02128 21.9574H23.0298C23.5915 21.9574 24.0511 22.417 24.0511 22.9787C24.0511 23.5404 23.5404 24 22.9787 24Z" fill="#4E4E4E"/>
<path d="M12 24C11.4383 24 10.9787 23.5404 10.9787 22.9787V17.1574C10.9787 16.5957 11.4383 16.1362 12 16.1362C12.5617 16.1362 13.0213 16.5957 13.0213 17.1574V22.9787C13.0213 23.5404 12.5617 24 12 24Z" fill="#4E4E4E"/>
<path d="M12.1223 7.66291L12.8743 8.58269L14.0582 8.60062C14.1338 8.60177 14.2111 8.67546 14.1904 8.76744L13.9442 9.93228L14.6686 10.8744C14.7144 10.9341 14.7084 11.0379 14.6214 11.0825L13.5623 11.6152L13.2817 12.7722C13.2637 12.8461 13.187 12.9042 13.0905 12.8647L12.0162 12.3642L10.9419 12.8647C10.8732 12.8967 10.7766 12.8706 10.7507 12.7722L10.4699 11.6152L9.41105 11.0825C9.34367 11.0486 9.30539 10.9536 9.36384 10.8744L10.088 9.93228L9.84197 8.76744C9.82624 8.69298 9.87433 8.60062 9.97423 8.60062L11.1579 8.58269L11.9101 7.66291C11.9614 7.60021 12.0612 7.58927 12.1223 7.66291ZM12.1223 8.76744C12.0652 8.6987 11.9688 8.6987 11.9101 8.76744L11.4916 9.27952L10.8331 9.28956C10.7432 9.28956 10.6918 9.37074 10.6987 9.44223L10.8377 10.1044L10.4349 10.6286C10.3811 10.7042 10.4104 10.791 10.4698 10.8295L11.0711 11.133L11.2274 11.7766C11.2495 11.8689 11.3378 11.8976 11.4053 11.8745L12.0162 11.5907L12.6139 11.8692C12.697 11.9072 12.7765 11.8575 12.8009 11.7903L12.9611 11.133L13.5503 10.8366C13.6316 10.7927 13.6454 10.7005 13.597 10.6302L13.1946 10.1044L13.3315 9.45638C13.3534 9.36859 13.2817 9.28956 13.1993 9.28956L12.5406 9.27952L12.1223 8.76744ZM12.0162 9.07303L12.3689 9.50448C12.4001 9.53978 12.4383 9.55485 12.4729 9.55485L13.028 9.56322L12.9128 10.1096C12.9027 10.1526 12.9168 10.1974 12.9384 10.2228L13.2781 10.6646L12.7815 10.9145C12.7386 10.9388 12.7209 10.9685 12.7125 10.9945L12.5777 11.5479L12.0739 11.3132C12.029 11.2953 11.9943 11.2994 11.9688 11.3088L11.4545 11.5479L11.3229 11.0053C11.3139 10.9648 11.2853 10.9356 11.261 10.9203L10.7542 10.6646L11.094 10.2228C11.1217 10.1887 11.1251 10.1493 11.1216 10.121L11.0043 9.56322L11.5595 9.55485C11.5962 9.55485 11.6315 9.53685 11.6544 9.51436L12.0162 9.07303ZM12.2317 9.92482L12.1336 9.75438C12.0871 9.66022 11.9585 9.66022 11.8987 9.75438L11.8006 9.92482L11.6083 9.89409C11.4975 9.87853 11.4305 9.98123 11.4547 10.0684L11.5319 10.2636L11.3881 10.3959C11.3055 10.4769 11.3456 10.5907 11.4279 10.6254L11.6277 10.6864L11.6409 10.882C11.6524 10.9951 11.7647 11.0367 11.8434 10.9941L12.0161 10.8744L12.1763 10.9862C12.2752 11.0492 12.3752 10.9848 12.39 10.8955L12.4046 10.6864L12.5911 10.6302C12.6964 10.595 12.7173 10.4683 12.6443 10.3959L12.5004 10.2636L12.5731 10.082C12.6118 9.97206 12.5201 9.87817 12.4282 9.89409L12.2317 9.92482ZM12.0162 10.1026C12.0634 10.1987 12.1094 10.2317 12.2278 10.2051C12.1851 10.2994 12.1851 10.3614 12.2801 10.4355C12.1763 10.4583 12.1336 10.5026 12.1336 10.6203C12.05 10.5477 11.9826 10.5518 11.8987 10.6203C11.8987 10.4943 11.849 10.4576 11.7521 10.4355C11.8313 10.3771 11.8595 10.3105 11.8044 10.2051C11.9172 10.2317 11.9734 10.1985 12.0162 10.1026Z" fill="#4E4E4E"/>
</svg>
