<svg width="30" height="31" viewBox="0 0 30 31" fill="none" xmlns="http://www.w3.org/2000/svg">
<path d="M2.05078 25.168H29.707V30.207H2.05078V25.168Z" fill="#1F7EC7"/>
<path d="M11.4844 13.1562H20.2734V20.7734H11.4844V13.1562Z" fill="#D6F571"/>
<path d="M24.4336 16.3789H20.2734V20.7734H9.72656V16.3789H7.32422L2.05078 25.168H29.707L24.4336 16.3789Z" fill="#005596"/>
<path d="M9.72656 19.6016H8.55469L7.96875 20.7734H9.72656V19.6016Z" fill="#123855"/>
<path d="M21.4453 19.6016H20.2734V20.7734H22.0312L21.4453 19.6016Z" fill="#123855"/>
<path d="M17.3438 14.3281H12.6562C12.6562 15.0957 12.1699 15.7461 11.4844 15.9863V20.7734H19.1016V16.0859C18.1289 16.0859 17.3438 15.3008 17.3438 14.3281Z" fill="#45AF63"/>
<path d="M29.707 0.792969V7.41406L26.5723 8.0293C26.5723 8.0293 25.6055 10.8125 22.3535 11.5742C19.1016 12.3359 17.4141 17.041 16.377 15.998C14.7188 14.3398 19.0723 10.2852 19.7754 9.23047C20.4785 8.17578 19.8633 7.0918 18.8379 6.91602C17.8125 6.74023 15.293 10.127 15.293 10.127L14.8242 13.1562H14.1797L13.9863 9.74023L18.5449 3.63477L28.5352 0.792969H29.707Z" fill="#FFCEBE"/>
<path d="M15 18.7227C15.6472 18.7227 16.1719 18.198 16.1719 17.5508C16.1719 16.9036 15.6472 16.3789 15 16.3789C14.3528 16.3789 13.8281 16.9036 13.8281 17.5508C13.8281 18.198 14.3528 18.7227 15 18.7227Z" fill="#B3D34C"/>
<path d="M16.7043 16.4434C16.5578 16.4434 16.3586 16.3965 16.1652 16.209C14.6593 14.7031 17.2023 11.791 18.7199 10.0449C19.0773 9.63477 19.3879 9.27734 19.5285 9.07227C19.7922 8.67383 19.8507 8.25781 19.6925 7.89453C19.5402 7.53711 19.2004 7.28516 18.7843 7.21484C18.7023 7.20312 18.2336 7.20312 16.8976 8.66211C16.2707 9.34766 15.7257 10.0508 15.5734 10.2559L15.1164 13.209C15.0929 13.3496 14.9699 13.4551 14.8293 13.4551H12.4269C12.2687 13.4551 12.1457 13.332 12.1339 13.1797L11.9464 9.76367C11.9406 9.69336 11.964 9.62891 12.005 9.57031L16.5578 3.46484C16.5988 3.41211 16.6515 3.37695 16.7101 3.35938L26.6945 0.511719C26.7179 0.505859 26.7472 0.5 26.7765 0.5H29.7062C29.8703 0.5 29.9992 0.628906 29.9992 0.792969V7.41406C29.9992 7.55469 29.8996 7.67188 29.7648 7.70117L26.7882 8.28711C26.5187 8.91406 25.3761 11.1699 22.423 11.8613C20.7648 12.248 19.5343 13.7305 18.5441 14.9199C17.8175 15.793 17.2961 16.4199 16.7453 16.4434C16.7277 16.4434 16.716 16.4434 16.7043 16.4434ZM18.7433 6.61719C18.7961 6.61719 18.8371 6.62305 18.8781 6.62891C19.4933 6.73438 19.9972 7.12109 20.2257 7.66016C20.4601 8.20508 20.3839 8.83789 20.0089 9.39453C19.8507 9.62891 19.5461 9.98047 19.1593 10.4258C17.8703 11.9141 15.4621 14.6738 16.5812 15.793C16.6457 15.8574 16.6867 15.8574 16.7101 15.8574C17.0031 15.8457 17.5539 15.1836 18.0871 14.5449C19.0773 13.3555 20.4367 11.7266 22.2824 11.293C25.341 10.5781 26.2843 7.96484 26.2902 7.93555C26.3254 7.83594 26.4074 7.76562 26.5129 7.74219L29.4132 7.17383V1.08594H26.8175L16.9621 3.89258L12.5324 9.83398L12.7023 12.8633H14.5773L15.005 10.0859C15.0109 10.0391 15.0285 9.99219 15.0578 9.95703C15.0812 9.92188 15.7023 9.08984 16.464 8.26367C17.7414 6.86914 18.38 6.61719 18.7433 6.61719Z" fill="#4E4E4E"/>
<path d="M20.2734 21.0664H9.72656C9.5625 21.0664 9.43359 20.9375 9.43359 20.7734V13.1562C9.43359 12.9922 9.5625 12.8633 9.72656 12.8633H16.6816V13.4492H10.0195V20.4805H19.9805V14.3281H20.5664V20.7734C20.5664 20.9375 20.4375 21.0664 20.2734 21.0664Z" fill="#4E4E4E"/>
<path d="M29.707 30.5H0.292969C0.128906 30.5 0 30.3711 0 30.207V25.168C0 25.1152 0.0117187 25.0625 0.0410156 25.0156L5.31445 16.2266C5.36719 16.1387 5.46094 16.0859 5.56641 16.0859H9.72656V16.6719H5.73047L0.585938 25.25V29.9141H29.4141V25.4609H1.46484V24.875H29.707C29.8711 24.875 30 25.0039 30 25.168V30.207C30 30.3711 29.8711 30.5 29.707 30.5Z" fill="#4E4E4E"/>
<path d="M29.4551 25.3203L24.2695 16.6719H20.2734V16.0859H24.4336C24.5391 16.0859 24.6328 16.1387 24.6855 16.2266L29.959 25.0156L29.4551 25.3203Z" fill="#4E4E4E"/>
<path d="M9.726 21.0681H7.96819C7.86858 21.0681 7.77483 21.0154 7.71623 20.9275C7.6635 20.8396 7.65764 20.7342 7.70451 20.6404L8.29045 19.4685C8.33733 19.3689 8.4428 19.3045 8.55412 19.3045H9.726C9.89006 19.3045 10.019 19.4334 10.019 19.5974V20.7693C10.019 20.9392 9.89006 21.0681 9.726 21.0681ZM8.4428 20.4822H9.43303V19.8963H8.73576L8.4428 20.4822Z" fill="#4E4E4E"/>
<path d="M22.0313 21.0664H20.2734C20.1094 21.0664 19.9805 20.9375 19.9805 20.7734V19.6016C19.9805 19.4375 20.1094 19.3086 20.2734 19.3086H21.4453C21.5566 19.3086 21.6563 19.373 21.709 19.4727L22.2949 20.6445C22.3418 20.7324 22.3359 20.8438 22.2832 20.9316C22.2246 21.0137 22.1309 21.0664 22.0313 21.0664ZM20.5664 20.4805H21.5566L21.2637 19.8945H20.5664V20.4805Z" fill="#4E4E4E"/>
<path d="M15 19.0156C14.1914 19.0156 13.5352 18.3594 13.5352 17.5508C13.5352 16.7422 14.1914 16.0859 15 16.0859C15.8086 16.0859 16.4648 16.7422 16.4648 17.5508C16.4648 18.3594 15.8086 19.0156 15 19.0156ZM15 16.6719C14.5137 16.6719 14.1211 17.0645 14.1211 17.5508C14.1211 18.0371 14.5137 18.4297 15 18.4297C15.4863 18.4297 15.8789 18.0371 15.8789 17.5508C15.8789 17.0645 15.4863 16.6719 15 16.6719Z" fill="#4E4E4E"/>
<path d="M19.1016 21.0664H10.8984C10.7344 21.0664 10.6055 20.9375 10.6055 20.7734V16.0859C10.6055 15.9219 10.7344 15.793 10.8984 15.793C11.707 15.793 12.3633 15.1367 12.3633 14.3281C12.3633 14.1641 12.4922 14.0352 12.6562 14.0352H16.1309V14.6211H12.9316C12.8027 15.5176 12.0938 16.2266 11.1973 16.3555V20.4805H18.8145V16.3555C18.2988 16.2793 17.8301 16.0156 17.502 15.5996L17.959 15.2363C18.2402 15.5879 18.6562 15.793 19.1074 15.793C19.2715 15.793 19.4004 15.9219 19.4004 16.0859V20.7734C19.3945 20.9375 19.2656 21.0664 19.1016 21.0664Z" fill="#4E4E4E"/>
<path d="M7.72161 10.1667C7.78055 10.1667 7.83707 10.1433 7.87875 10.1016C7.92042 10.0599 7.94383 10.0034 7.94383 9.94444V9.72222C7.94383 9.66329 7.92042 9.60676 7.87875 9.56509C7.83707 9.52341 7.78055 9.5 7.72161 9.5C7.66267 9.5 7.60615 9.52341 7.56448 9.56509C7.5228 9.60676 7.49939 9.66329 7.49939 9.72222V9.94444C7.49939 10.0034 7.5228 10.0599 7.56448 10.1016C7.60615 10.1433 7.66267 10.1667 7.72161 10.1667Z" fill="#4E4E4E"/>
<path d="M7.72161 10.6111C7.66267 10.6111 7.60615 10.6345 7.56448 10.6762C7.5228 10.7179 7.49939 10.7744 7.49939 10.8333V11.0556C7.49939 11.1145 7.5228 11.171 7.56448 11.2127C7.60615 11.2544 7.66267 11.2778 7.72161 11.2778C7.78055 11.2778 7.83707 11.2544 7.87875 11.2127C7.92042 11.171 7.94383 11.1145 7.94383 11.0556V10.8333C7.94383 10.7744 7.92042 10.7179 7.87875 10.6762C7.83707 10.6345 7.78055 10.6111 7.72161 10.6111Z" fill="#4E4E4E"/>
<path d="M7.05492 10.6111H7.27715C7.33608 10.6111 7.39261 10.5877 7.43428 10.546C7.47596 10.5043 7.49937 10.4478 7.49937 10.3889C7.49937 10.33 7.47596 10.2734 7.43428 10.2318C7.39261 10.1901 7.33608 10.1667 7.27715 10.1667H7.05492C6.99599 10.1667 6.93946 10.1901 6.89779 10.2318C6.85612 10.2734 6.8327 10.33 6.8327 10.3889C6.8327 10.4478 6.85612 10.5043 6.89779 10.546C6.93946 10.5877 6.99599 10.6111 7.05492 10.6111Z" fill="#4E4E4E"/>
<path d="M8.16601 10.6111H8.38823C8.44717 10.6111 8.50369 10.5877 8.54537 10.546C8.58704 10.5043 8.61045 10.4478 8.61045 10.3889C8.61045 10.33 8.58704 10.2734 8.54537 10.2318C8.50369 10.1901 8.44717 10.1667 8.38823 10.1667H8.16601C8.10707 10.1667 8.05055 10.1901 8.00887 10.2318C7.9672 10.2734 7.94379 10.33 7.94379 10.3889C7.94379 10.4478 7.9672 10.5043 8.00887 10.546C8.05055 10.5877 8.10707 10.6111 8.16601 10.6111Z" fill="#4E4E4E"/>
<path d="M22.9991 13.4996C23.0581 13.4996 23.1146 13.4762 23.1563 13.4345C23.1979 13.3928 23.2214 13.3363 23.2214 13.2773V13.0551C23.2214 12.9962 23.1979 12.9397 23.1563 12.898C23.1146 12.8563 23.0581 12.8329 22.9991 12.8329C22.9402 12.8329 22.8837 12.8563 22.842 12.898C22.8003 12.9397 22.7769 12.9962 22.7769 13.0551V13.2773C22.7769 13.3363 22.8003 13.3928 22.842 13.4345C22.8837 13.4762 22.9402 13.4996 22.9991 13.4996Z" fill="#4E4E4E"/>
<path d="M22.9991 13.944C22.9402 13.944 22.8837 13.9674 22.842 14.0091C22.8003 14.0508 22.7769 14.1073 22.7769 14.1662V14.3885C22.7769 14.4474 22.8003 14.5039 22.842 14.5456C22.8837 14.5873 22.9402 14.6107 22.9991 14.6107C23.0581 14.6107 23.1146 14.5873 23.1563 14.5456C23.1979 14.5039 23.2214 14.4474 23.2214 14.3885V14.1662C23.2214 14.1073 23.1979 14.0508 23.1563 14.0091C23.1146 13.9674 23.0581 13.944 22.9991 13.944Z" fill="#4E4E4E"/>
<path d="M22.3325 13.944H22.5547C22.6136 13.944 22.6701 13.9206 22.7118 13.8789C22.7535 13.8372 22.7769 13.7807 22.7769 13.7218C22.7769 13.6629 22.7535 13.6063 22.7118 13.5647C22.6701 13.523 22.6136 13.4996 22.5547 13.4996H22.3325C22.2735 13.4996 22.217 13.523 22.1753 13.5647C22.1336 13.6063 22.1102 13.6629 22.1102 13.7218C22.1102 13.7807 22.1336 13.8372 22.1753 13.8789C22.217 13.9206 22.2735 13.944 22.3325 13.944Z" fill="#4E4E4E"/>
<path d="M23.4435 13.944H23.6658C23.7247 13.944 23.7812 13.9206 23.8229 13.8789C23.8646 13.8372 23.888 13.7807 23.888 13.7218C23.888 13.6629 23.8646 13.6063 23.8229 13.5647C23.7812 13.523 23.7247 13.4996 23.6658 13.4996H23.4435C23.3846 13.4996 23.3281 13.523 23.2864 13.5647C23.2447 13.6063 23.2213 13.6629 23.2213 13.7218C23.2213 13.7807 23.2447 13.8372 23.2864 13.8789C23.3281 13.9206 23.3846 13.944 23.4435 13.944Z" fill="#4E4E4E"/>
<path d="M11.3316 4.88802C11.3905 4.88802 11.4471 4.86461 11.4887 4.82293C11.5304 4.78126 11.5538 4.72474 11.5538 4.6658V4.44358C11.5538 4.38464 11.5304 4.32812 11.4887 4.28644C11.4471 4.24477 11.3905 4.22135 11.3316 4.22135C11.2727 4.22135 11.2161 4.24477 11.1745 4.28644C11.1328 4.32812 11.1094 4.38464 11.1094 4.44358V4.6658C11.1094 4.72474 11.1328 4.78126 11.1745 4.82293C11.2161 4.86461 11.2727 4.88802 11.3316 4.88802Z" fill="#4E4E4E"/>
<path d="M11.3316 5.33247C11.2727 5.33247 11.2161 5.35588 11.1745 5.39755C11.1328 5.43923 11.1094 5.49575 11.1094 5.55469V5.77691C11.1094 5.83585 11.1328 5.89237 11.1745 5.93405C11.2161 5.97572 11.2727 5.99913 11.3316 5.99913C11.3905 5.99913 11.4471 5.97572 11.4887 5.93405C11.5304 5.89237 11.5538 5.83585 11.5538 5.77691V5.55469C11.5538 5.49575 11.5304 5.43923 11.4887 5.39755C11.4471 5.35588 11.3905 5.33247 11.3316 5.33247Z" fill="#4E4E4E"/>
<path d="M10.6649 5.33247H10.8871C10.9461 5.33247 11.0026 5.30905 11.0443 5.26738C11.0859 5.2257 11.1094 5.16918 11.1094 5.11024C11.1094 5.05131 11.0859 4.99478 11.0443 4.95311C11.0026 4.91143 10.9461 4.88802 10.8871 4.88802H10.6649C10.606 4.88802 10.5495 4.91143 10.5078 4.95311C10.4661 4.99478 10.4427 5.05131 10.4427 5.11024C10.4427 5.16918 10.4661 5.2257 10.5078 5.26738C10.5495 5.30905 10.606 5.33247 10.6649 5.33247Z" fill="#4E4E4E"/>
<path d="M11.776 5.33247H11.9982C12.0572 5.33247 12.1137 5.30905 12.1554 5.26738C12.197 5.2257 12.2204 5.16918 12.2204 5.11024C12.2204 5.05131 12.197 4.99478 12.1554 4.95311C12.1137 4.91143 12.0572 4.88802 11.9982 4.88802H11.776C11.7171 4.88802 11.6605 4.91143 11.6189 4.95311C11.5772 4.99478 11.5538 5.05131 11.5538 5.11024C11.5538 5.16918 11.5772 5.2257 11.6189 5.26738C11.6605 5.30905 11.7171 5.33247 11.776 5.33247Z" fill="#4E4E4E"/>
</svg>
