<svg width="26" height="27" viewBox="0 0 26 27" fill="none" xmlns="http://www.w3.org/2000/svg">
<path d="M18.0007 26.9965H6.14324C5.50954 26.9965 4.99574 26.392 4.99574 25.6465V16.1965H2.70074V2.24648C2.70074 1.50095 3.21454 0.896484 3.84824 0.896484H16.4707C17.3157 0.896484 18.0007 1.70244 18.0007 2.69648V26.9965Z" fill="#D6F571"/>
<path d="M11.6987 13.0515V12.1515L8.99872 14.4015L11.6987 16.6515V15.7515H24.7487V13.0515H11.6987Z" fill="#46CC8D"/>
<path d="M6.30176 26.551C7.04729 26.551 7.65176 25.9465 7.65176 25.201V23.851H21.1518C21.8973 23.851 22.5018 24.4555 22.5018 25.201C22.5018 25.9465 21.8973 26.551 21.1518 26.551H6.30176Z" fill="#B3D34C"/>
<path d="M4.94872 15.752H2.24872V1.80201C2.24872 1.05648 2.85319 0.452011 3.59872 0.452011C4.34425 0.452011 4.94872 1.05648 4.94872 1.80201V15.752Z" fill="#A9CA3E"/>
<path d="M7.20282 2.70592H11.7028V3.60592H7.20282V2.70592Z" fill="#B5911B"/>
<path d="M7.20282 4.50642H11.7028V5.40642H7.20282V4.50642Z" fill="#B5911B"/>
<path d="M9.0033 19.8069H18.0033V20.7069H9.0033V19.8069Z" fill="#B5911B"/>
<path d="M9.0033 21.6074H18.0033V22.5074H9.0033V21.6074Z" fill="#B5911B"/>
<path d="M15.3013 18.0064H18.0013V18.9064H15.3013V18.0064Z" fill="#B5911B"/>
<path d="M16.1982 9L13.4982 6.75V7.65H0.448242V10.35H13.4982V11.25L16.1982 9Z" fill="#DEEFFC"/>
<path d="M24.75 12.6H20.7V2.25C20.6985 1.00789 19.6921 0.00153809 18.45 0H3.6C2.60596 0 1.8 0.805957 1.8 1.8V7.2H0.45C0.201489 7.2 0 7.40149 0 7.65V10.35C0 10.5985 0.201489 10.8 0.45 10.8H1.8V15.75C1.8 15.9985 2.00149 16.2 2.25 16.2H4.5V25.2C4.5 26.194 5.30596 27 6.3 27H21.15C22.144 27 22.95 26.194 22.95 25.2C22.95 24.206 22.144 23.4 21.15 23.4H20.7V16.2H24.75C24.9985 16.2 25.2 15.9985 25.2 15.75V13.05C25.2 12.8015 24.9985 12.6 24.75 12.6ZM2.7 1.8C2.7 1.30298 3.10298 0.9 3.6 0.9C4.09702 0.9 4.5 1.30298 4.5 1.8V7.2H2.7V1.8ZM0.9 8.1H13.5C13.7263 8.1 13.9175 7.93213 13.9465 7.70757L15.4971 9L13.9465 10.2924C13.9175 10.0679 13.7263 9.9 13.5 9.9H0.9V8.1ZM2.7 15.3V10.8H4.5V15.3H2.7ZM22.05 25.2C22.05 25.697 21.647 26.1 21.15 26.1H7.8583C8.01716 25.8267 8.10044 25.5162 8.1 25.2V24.3H21.15C21.647 24.3 22.05 24.703 22.05 25.2ZM19.8 23.4H7.65C7.40149 23.4 7.2 23.6015 7.2 23.85V25.2C7.2 25.697 6.79702 26.1 6.3 26.1C5.80298 26.1 5.4 25.697 5.4 25.2V10.8H13.05V11.25C13.05 11.4247 13.1511 11.5838 13.3093 11.6578C13.4675 11.7319 13.6542 11.7077 13.7885 11.5956L16.4885 9.34563C16.5909 9.26016 16.6502 9.13359 16.6502 9C16.6502 8.86641 16.5909 8.73984 16.4885 8.65437L13.7885 6.40437C13.6542 6.29231 13.4675 6.26814 13.3093 6.34219C13.1511 6.41624 13.05 6.57532 13.05 6.75V7.2H5.4V1.8C5.39846 1.48315 5.31233 1.17246 5.15061 0.9H18.45C19.1955 0.9 19.8 1.50447 19.8 2.25V12.6H12.15V12.15C12.15 11.9753 12.0489 11.8162 11.8907 11.7422C11.7325 11.6681 11.5458 11.6923 11.4115 11.8044L8.7115 14.0544C8.60911 14.1398 8.54978 14.2664 8.54978 14.4C8.54978 14.5336 8.60911 14.6602 8.7115 14.7456L11.4115 16.9956C11.5458 17.1077 11.7325 17.1319 11.8907 17.0578C12.0489 16.9838 12.15 16.8247 12.15 16.65V16.2H19.8V23.4ZM24.3 15.3H11.7C11.642 15.3002 11.5846 15.3119 11.5313 15.3343C11.5148 15.3428 11.499 15.3525 11.4836 15.3631C11.4513 15.3798 11.4209 15.4002 11.3935 15.4241C11.379 15.4404 11.3656 15.4575 11.3535 15.4756C11.3315 15.5008 11.3128 15.5285 11.2972 15.5584C11.2885 15.5795 11.2816 15.6015 11.2766 15.6241C11.2671 15.6461 11.2597 15.6689 11.2544 15.6924L9.7029 14.4L11.2535 13.1076C11.2588 13.1311 11.2663 13.1539 11.2757 13.1759C11.2805 13.1985 11.2876 13.2205 11.2964 13.2416C11.3117 13.2715 11.3306 13.2992 11.3526 13.3244C11.3647 13.3425 11.3781 13.3596 11.3926 13.3759C11.4201 13.3998 11.4504 13.4202 11.4827 13.4369C11.4981 13.4475 11.5139 13.4572 11.5304 13.4657C11.584 13.4884 11.6418 13.5 11.7 13.5H24.3V15.3Z" fill="#4E4E4E"/>
<path d="M7.19824 2.69698H11.6982V3.59698H7.19824V2.69698Z" fill="#005596"/>
<path d="M7.19824 4.49749H11.6982V5.39749H7.19824V4.49749Z" fill="#005596"/>
<path d="M8.99872 19.798H17.9987V20.698H8.99872V19.798Z" fill="#005596"/>
<path d="M8.99872 21.5985H17.9987V22.4985H8.99872V21.5985Z" fill="#005596"/>
<path d="M15.3005 17.9975H18.0005V18.8975H15.3005V17.9975Z" fill="#005596"/>
</svg>
