<svg width="24" height="30" viewBox="0 0 24 30" fill="none" xmlns="http://www.w3.org/2000/svg">
<path d="M7.2142 7.15891C7.09608 6.86664 7.00426 6.56084 6.94303 6.24414L0.423187 9.07949L1.58176 9.60842L7.2142 7.15891Z" fill="#005596"/>
<path d="M11.9507 14.1655L1.61179 10.0546V24.4712C1.61179 24.6872 1.73929 24.8828 1.93692 24.9701L11.9507 29.5404L22.2311 25.5199C22.4287 25.4327 22.5562 25.2371 22.5562 25.0211V9.66569L11.9507 14.1655Z" fill="#45AF63"/>
<path d="M9.69687 26.318L2.55388 23.1665C2.42193 23.1083 2.33679 22.9776 2.33679 22.8334V12.9822C2.33679 12.8975 2.42386 12.8407 2.50138 12.8749L9.71843 16.059C9.91121 16.144 10.0356 16.3348 10.0356 16.5456V26.0971C10.0357 26.2715 9.85642 26.3884 9.69687 26.318Z" fill="#005596"/>
<path d="M3.51291 13.321L2.49508 12.8719C2.42049 12.839 2.33676 12.8936 2.33676 12.9751V22.8331C2.33676 22.9774 2.4219 23.1081 2.55385 23.1663L3.51286 23.5894L3.51291 13.321Z" fill="#45AF63"/>
<path d="M2.33679 15.4773L10.0357 18.874V16.344C10.0357 16.22 9.96242 16.1077 9.84898 16.0576L2.49511 12.8131C2.42052 12.7802 2.33679 12.8348 2.33679 12.9163V15.4773Z" fill="#005596"/>
<path d="M3.51289 13.2622L2.4732 12.8035C2.40892 12.7752 2.33679 12.8222 2.33679 12.8924V15.4773L3.51294 15.9962L3.51289 13.2622Z" fill="#45AF63"/>
<path d="M8.17 8.87321H15.4868C16.7374 7.56458 17.1519 5.75069 16.7306 4.11282C16.1688 1.92956 14.187 0.316299 11.8284 0.316299C7.38625 0.316299 5.10092 5.66193 8.17 8.87321Z" fill="#B3D34C"/>
<path d="M12.4151 0.350928C12.2225 0.328721 12.027 0.316299 11.8285 0.316299C7.38638 0.316299 5.10105 5.66198 8.17007 8.87321H9.3433C6.4582 5.85446 8.28006 0.828409 12.4151 0.350928Z" fill="#B4CB6A"/>
<path d="M11.8284 1.88238C9.78378 1.88238 8.14726 3.63831 8.35035 5.72718C8.43566 6.58687 8.83298 7.35427 9.42683 7.91624C9.48894 7.96798 9.75455 8.24162 10.2344 8.48824C11.1272 8.94668 12.1777 8.99818 13.1127 8.62851C13.7398 8.38007 14.1828 7.97507 14.2298 7.91624C14.8237 7.35421 15.221 6.58687 15.3063 5.72718C15.514 3.68443 13.9087 1.88238 11.8284 1.88238Z" fill="#D6F571"/>
<path d="M10.603 7.9163C10.0092 7.35427 9.6119 6.58693 9.52652 5.72724C9.34342 3.84398 10.656 2.23019 12.4164 1.93189C12.2252 1.89949 12.0288 1.88238 11.8284 1.88238C9.77895 1.88238 8.14781 3.64335 8.35037 5.72718C8.43568 6.58687 8.83307 7.35427 9.42686 7.91624C9.48885 7.96787 9.75451 8.24162 10.2345 8.48824C10.9195 8.84003 11.7134 8.94943 12.4164 8.82275C11.5649 8.66941 11.1407 8.36437 10.603 7.9163Z" fill="#B4CB6A"/>
<path d="M13.1261 29.0223V13.6474L11.95 14.1663V29.5412L13.1261 29.0223Z" fill="#005596"/>
<path d="M2.53338 12.4167C2.24223 12.2884 1.91434 12.5018 1.91434 12.8202C1.91434 13.1102 1.91434 22.6106 1.91434 22.8513C1.91434 23.1701 2.10283 23.4593 2.39451 23.5879L9.87629 26.8889C9.93324 26.914 9.99389 26.9264 10.0543 26.9264C10.1386 26.9264 10.2224 26.9023 10.2952 26.8548C10.4201 26.7734 10.4954 26.6344 10.4954 26.4853C10.4954 26.2294 10.4954 16.5062 10.4954 16.2169C10.4954 16.0421 10.3923 15.8839 10.2324 15.8134L2.53338 12.4167ZM2.79635 13.4969L9.61315 16.5045V18.2744L2.79635 15.2668V13.4969ZM2.79635 22.8012V16.231L9.61315 19.2386V25.8087L2.79635 22.8012Z" fill="#4E4E4E"/>
<path d="M12.09 4.66632V3.68289C12.4643 3.71089 12.5929 3.88966 12.7493 3.88966C12.9561 3.88966 13.0455 3.63261 13.0455 3.50412C13.0455 3.17998 12.4531 3.07386 12.09 3.06267V2.91736C12.09 2.84482 11.995 2.77767 11.9 2.77767C11.7938 2.77767 11.71 2.84476 11.71 2.91736V3.07386C11.1513 3.14646 10.626 3.45379 10.626 4.16341C10.626 4.87861 11.2016 5.09652 11.71 5.28648V6.39841C11.2184 6.34257 11.0507 5.97935 10.8383 5.97935C10.6651 5.97935 10.5255 6.21402 10.5255 6.37047C10.5255 6.68336 11.0339 7.04658 11.7101 7.06334V7.21978C11.7101 7.29238 11.7939 7.35947 11.9001 7.35947C11.995 7.35947 12.09 7.29244 12.09 7.21978V7.04658C12.7159 6.94597 13.1461 6.54923 13.1461 5.86199C13.146 5.10214 12.5872 4.85072 12.09 4.66632ZM11.7547 4.54339C11.4976 4.44279 11.3076 4.33662 11.3076 4.09082C11.3076 3.87847 11.4753 3.74435 11.7547 3.6997V4.54339ZM12.0453 6.39291V5.42066C12.2856 5.52689 12.4644 5.66095 12.4644 5.93476C12.4644 6.19738 12.2911 6.34257 12.0453 6.39291Z" fill="#4E4E4E"/>
<path d="M23.6719 8.69401L17.2387 5.89627C17.5437 3.04586 15.5892 0.561488 12.9678 0.0100038C12.7294 -0.0405626 12.4956 0.112367 12.4454 0.350785C12.3952 0.589145 12.5478 0.822992 12.7862 0.873148C16.1416 1.57926 17.5671 5.68434 15.2519 8.31057H14.3218C17.0852 6.05694 15.5236 1.43389 11.847 1.43389C8.21022 1.43389 6.58342 5.99061 9.38561 8.31057H8.44201C6.14291 5.70192 7.5351 1.58137 10.9095 0.872797C11.1479 0.822758 11.3005 0.58891 11.2505 0.350551C11.2004 0.112074 10.9663 -0.0406212 10.7282 0.00953504C8.03057 0.575961 6.10764 3.15209 6.46652 5.99711L0.265137 8.69401C0.110039 8.76139 0.00304687 8.91661 0.000410155 9.09192C0.000410155 9.09374 0 9.09549 0 9.09731C0 9.09749 5.85616e-05 9.09766 5.85616e-05 9.09784C5.85616e-05 9.09801 0 9.09825 0 9.09842V24.118C0 24.5086 0.230859 24.8627 0.588105 25.0203L11.7905 29.9628C11.9002 30.0111 12.0312 30.0136 12.1466 29.9628L23.349 25.0204C23.7062 24.8627 23.937 24.5085 23.937 24.1181V18.6442C23.937 18.4006 23.7396 18.2032 23.496 18.2032C23.2523 18.2032 23.0549 18.4006 23.0549 18.6442V24.1181C23.0549 24.1593 23.0305 24.1967 22.9928 24.2134L12.4095 28.8826V14.4718L15.1703 13.2538L23.0549 9.77512V16.5859C23.0549 16.8296 23.2523 17.027 23.4959 17.027C23.7396 17.027 23.937 16.8296 23.937 16.5859C23.937 16.3312 23.9369 9.0025 23.9369 9.09778C23.9371 8.92217 23.8308 8.76309 23.6719 8.69401ZM10.4807 7.98075C7.67924 6.54081 8.7232 2.3159 11.8469 2.3159C13.1673 2.3159 14.3177 3.16217 14.7095 4.42176C15.5128 7.00405 12.775 9.1586 10.4807 7.98075ZM7.33178 8.31057H7.07766C6.83408 8.31057 6.63662 8.50797 6.63662 8.75161C6.63662 8.99524 6.83408 9.19264 7.07766 9.19264C7.40865 9.19264 15.9988 9.19264 16.6181 9.19264C16.8617 9.19264 17.0591 8.99524 17.0591 8.75161C17.0591 8.50797 16.8617 8.31057 16.6181 8.31057H16.362C16.6783 7.83707 16.9149 7.32204 17.0671 6.78362L22.3968 9.10141L11.9685 13.7023L1.54031 9.10135L6.65397 6.87754C6.80649 7.38198 7.03389 7.86455 7.33178 8.31057ZM11.5274 28.8826L0.944121 24.2133C0.906387 24.1967 0.882012 24.1592 0.882012 24.118V9.77512C1.18242 9.9076 11.2838 14.3643 11.5274 14.4718V28.8826H11.5274Z" fill="#4E4E4E"/>
<path d="M8.49283 20.5046L4.23582 18.6264C4.01287 18.5283 3.7526 18.6291 3.65428 18.8519C3.55595 19.0748 3.65691 19.3352 3.87974 19.4335L8.13676 21.3117C8.36076 21.4103 8.62039 21.3081 8.7183 21.0862C8.81662 20.8632 8.71566 20.603 8.49283 20.5046Z" fill="#DEEFFC"/>
<path d="M8.49283 22.4898L4.23582 20.6116C4.01293 20.5134 3.7526 20.6143 3.65428 20.8371C3.55595 21.06 3.65691 21.3203 3.87974 21.4186L8.13676 23.2968C8.35976 23.3952 8.62004 23.2941 8.7183 23.0713C8.81662 22.8484 8.71566 22.5881 8.49283 22.4898Z" fill="#DEEFFC"/>
</svg>
