<svg width="25" height="31" viewBox="0 0 25 31" fill="none" xmlns="http://www.w3.org/2000/svg">
<path d="M9.00085 8.49913H12.1827C13.1868 8.49913 14.0009 9.31323 14.0009 10.3173V13.4991H10.819C9.81495 13.4991 9.00085 12.685 9.00085 11.681V8.49913Z" fill="#005596"/>
<path d="M19.0009 16.4991V13.9537C19.0009 13.1504 19.815 12.4991 20.819 12.4991H24.0009V15.0446C24.0009 15.8479 23.1868 16.4991 22.1827 16.4991H19.0009Z" fill="#005596"/>
<path d="M0.000854492 11.4991H3.81904C5.02394 11.4991 6.00085 12.1504 6.00085 12.9537V15.4991H2.18267C0.977772 15.4991 0.000854492 14.8479 0.000854492 14.0446V11.4991Z" fill="#005596"/>
<path d="M23.0009 2.49913V5.04459C23.0009 5.84785 22.1868 6.49913 21.1827 6.49913H18.0009V3.95368C18.0009 3.15041 18.815 2.49913 19.819 2.49913H23.0009Z" fill="#005596"/>
<path d="M1.45099 20.3383H20.8058V30.0157H1.45099V20.3383Z" fill="#D6F571"/>
<path d="M13.5484 25.1775C13.5484 26.5136 12.4652 27.5968 11.1291 27.5968C9.79299 27.5968 8.70972 26.5136 8.70972 25.1775C8.70972 23.8414 9.79299 22.7581 11.1291 22.7581C12.4652 22.7581 13.5484 23.8414 13.5484 25.1775Z" fill="white"/>
<path d="M3.87095 20.3386C3.87095 21.6747 2.78768 22.758 1.4516 22.758V20.3386H3.87095Z" fill="#45AF63"/>
<path d="M3.87095 30.016H1.4516V27.5967C2.78768 27.5967 3.87095 28.68 3.87095 30.016Z" fill="#45AF63"/>
<path d="M20.8064 20.3386V22.758C19.4704 22.758 18.3871 21.6747 18.3871 20.3386H20.8064Z" fill="#45AF63"/>
<path d="M20.8064 27.5967V30.016H18.3871C18.3871 28.68 19.4704 27.5967 20.8064 27.5967Z" fill="#45AF63"/>
<path d="M24.1935 11.1452H20.8065C19.4708 11.1468 18.3887 12.2289 18.3871 13.5645V16.4677H16.9355V6.79032H21.2903C22.6259 6.78867 23.708 5.70657 23.7097 4.37097V0.983871C23.7097 0.716655 23.493 0.5 23.2258 0.5H19.8387C18.5031 0.501654 17.421 1.58375 17.4194 2.91935V5.82258H16.9355C16.8497 5.82471 16.7661 5.85046 16.6935 5.89653C16.621 5.85046 16.5374 5.82471 16.4516 5.82258C16.1844 5.82258 15.9677 6.03924 15.9677 6.30645V12.5968H14.5161V9.69355C14.5145 8.35794 13.4324 7.27585 12.0968 7.27419H8.70968C8.44246 7.27419 8.22581 7.49085 8.22581 7.75807V11.1452C8.22746 12.4808 9.30955 13.5629 10.6452 13.5645H15.9677V19.8548H8.22581V15.9839C8.22581 15.7167 8.00915 15.5 7.74193 15.5H6.29032V12.5968C6.28867 11.2612 5.20657 10.1791 3.87097 10.1774H0.483871C0.216655 10.1774 0 10.3941 0 10.6613V14.0484C0.00165387 15.384 1.08375 16.4661 2.41935 16.4677H7.25806V19.8548H1.45161C1.1844 19.8548 0.967742 20.0715 0.967742 20.3387V30.0161C0.967742 30.2833 1.1844 30.5 1.45161 30.5H20.8065C21.0737 30.5 21.2903 30.2833 21.2903 30.0161V20.3387C21.2903 20.0715 21.0737 19.8548 20.8065 19.8548H16.9355V17.4355H22.2581C23.5937 17.4338 24.6758 16.3517 24.6774 15.0161V11.629C24.6774 11.3618 24.4608 11.1452 24.1935 11.1452ZM18.3871 2.91935C18.3871 2.11771 19.0371 1.46774 19.8387 1.46774H22.7419V4.37097C22.7419 5.17262 22.092 5.82258 21.2903 5.82258H18.3871V2.91935ZM9.19355 11.1452V8.24194H12.0968C12.8984 8.24194 13.5484 8.8919 13.5484 9.69355V12.5968H10.6452C9.84351 12.5968 9.19355 11.9468 9.19355 11.1452ZM0.967742 14.0484V11.1452H3.87097C4.67262 11.1452 5.32258 11.7951 5.32258 12.5968V15.5H2.41935C1.61771 15.5 0.967742 14.85 0.967742 14.0484ZM1.93548 20.8226H3.32614C3.14871 21.5037 2.61664 22.0356 1.93548 22.2128V20.8226ZM1.93548 29.5323V28.1421C2.61664 28.3193 3.14871 28.8511 3.32614 29.5323H1.93548ZM20.3226 29.5323H18.9319C19.1094 28.8511 19.6414 28.3193 20.3226 28.1421V29.5323ZM20.3226 20.8226V22.2128C19.6414 22.0356 19.1094 21.5037 18.9319 20.8226H20.3226ZM17.9467 20.8226C18.1546 22.0384 19.1068 22.9906 20.3226 23.1985V27.1564C19.1068 27.3643 18.1546 28.3164 17.9467 29.5323H4.31137C4.10345 28.3164 3.1513 27.3643 1.93548 27.1564V23.1985C3.1513 22.9906 4.10345 22.0384 4.31137 20.8226H17.9467ZM23.7097 15.0161C23.7097 15.8178 23.0597 16.4677 22.2581 16.4677H19.3548V13.5645C19.3548 12.7629 20.0048 12.1129 20.8065 12.1129H23.7097V15.0161Z" fill="#4E4E4E"/>
<path d="M11.1291 28.0806C12.7324 28.0806 14.0323 26.7807 14.0323 25.1774C14.0323 23.5741 12.7324 22.2742 11.1291 22.2742C9.52576 22.2742 8.22583 23.5741 8.22583 25.1774C8.22748 26.7802 9.52623 28.079 11.1291 28.0806ZM11.1291 23.2419C12.1979 23.2419 13.0645 24.1086 13.0645 25.1774C13.0645 26.2463 12.1979 27.1129 11.1291 27.1129C10.0602 27.1129 9.19357 26.2463 9.19357 25.1774C9.19357 24.1086 10.0602 23.2419 11.1291 23.2419Z" fill="#4E4E4E"/>
<path d="M15.4838 25.1775H18.8709C19.1381 25.1775 19.3548 24.9608 19.3548 24.6936C19.3548 24.4264 19.1381 24.2097 18.8709 24.2097H15.4838C15.2166 24.2097 14.9999 24.4264 14.9999 24.6936C14.9999 24.9608 15.2166 25.1775 15.4838 25.1775Z" fill="#45AF63"/>
<path d="M15.4838 26.6291H16.4516C16.7188 26.6291 16.9354 26.4124 16.9354 26.1452C16.9354 25.878 16.7188 25.6614 16.4516 25.6614H15.4838C15.2166 25.6614 14.9999 25.878 14.9999 26.1452C14.9999 26.4124 15.2166 26.6291 15.4838 26.6291Z" fill="#45AF63"/>
<path d="M17.7194 25.7001C17.6601 25.7235 17.606 25.758 17.5597 25.8017C17.4714 25.8943 17.4213 26.0172 17.4194 26.1452C17.4189 26.2737 17.4695 26.3973 17.5597 26.4887C17.7506 26.6759 18.0559 26.6759 18.2468 26.4887C18.337 26.3973 18.3876 26.2737 18.3871 26.1452C18.3852 26.0172 18.3351 25.8943 18.2468 25.8017C18.1076 25.6644 17.8995 25.6243 17.7194 25.7001Z" fill="#45AF63"/>
</svg>
