<svg width="34" height="31" viewBox="0 0 34 31" fill="none" xmlns="http://www.w3.org/2000/svg">
<path d="M14.7972 6.1189C14.7972 6.26736 14.7584 6.40658 14.6908 6.52757L15.5534 6.92229L17.3293 5.53723C17.695 5.25194 17.7602 4.72421 17.4749 4.3585C17.1897 3.99279 16.6619 3.92754 16.2962 4.21282L14.5771 5.55364C14.7135 5.70287 14.7972 5.90087 14.7972 6.1189Z" fill="#0C68AE"/>
<path d="M17.4673 7.80775L14.686 6.53516C14.5425 6.79227 14.268 6.96631 13.9526 6.96631C14.4165 6.96631 14.7925 7.34229 14.7925 7.80614C14.7925 8.01002 14.7197 8.19691 14.5989 8.3424L16.7685 9.33514C17.1903 9.5281 17.6886 9.34263 17.8816 8.92091C18.0746 8.49912 17.8891 8.00072 17.4673 7.80775Z" fill="#0C68AE"/>
<path d="M14.9679 0.701313L9.239 1.20131C9.05544 1.20131 8.94069 1.45135 9.0325 1.65134L10.6615 5.20131H13.3389L14.9679 1.65134C15.0597 1.45129 15.1515 0.701313 14.9679 0.701313Z" fill="#45AF63"/>
<path d="M18.5366 13.9584L14.419 8.5C14.3689 8.51204 14.3169 8.5187 14.2636 8.5187L10.5003 9C10.4572 9 10.4154 8.995 10.3744 8.98713L5.99999 13.9584C4.42686 16.0316 3.96794 19.5347 5.00032 22L5.3111 22.7421L8.54677 23.5L8.56854 23.4497C8.75508 23.0182 9.13517 22.7501 9.56039 22.7501H12.5616L12.5756 22.7087C13.0509 21.2966 14.2728 20.3478 15.616 20.3478H19.7629C20.3227 18.1452 19.8823 15.7425 18.5366 13.9584Z" fill="#45AF63"/>
<path d="M11.5094 11.7141L12.6454 12.792C12.6766 12.8217 12.718 12.8382 12.7611 12.8382H14.3649C14.4578 12.8382 14.533 12.9135 14.533 13.0064V14.6101C14.533 14.6532 14.5496 14.6946 14.5792 14.7259L15.6571 15.8618C15.7187 15.9267 15.7187 16.0285 15.6571 16.0933L14.5792 17.2293C14.5496 17.2605 14.533 17.302 14.533 17.345V18.9488C14.533 19.0417 14.4578 19.1169 14.3649 19.1169H12.7611C12.718 19.1169 12.6766 19.1335 12.6454 19.1631L11.5094 20.241C11.4445 20.3026 11.3428 20.3026 11.2779 20.241L10.1419 19.1631C10.1106 19.1335 10.0692 19.1169 10.0261 19.1169H8.42239C8.32949 19.1169 8.25423 19.0417 8.25423 18.9488V17.345C8.25423 17.302 8.2377 17.2605 8.20804 17.2293L7.13016 16.0933C7.06859 16.0285 7.06859 15.9267 7.13016 15.8618L8.20804 14.7259C8.2377 14.6946 8.25423 14.6532 8.25423 14.6101V13.0064C8.25423 12.9135 8.32949 12.8382 8.42239 12.8382H10.0261C10.0692 12.8382 10.1106 12.8217 10.1419 12.792L11.2779 11.7141C11.3427 11.6526 11.4445 11.6526 11.5094 11.7141Z" fill="#D6F571"/>
<path d="M9.61136 18.964V17.3603C9.61136 17.3172 9.59482 17.2758 9.56517 17.2445L8.48729 16.1086C8.42572 16.0438 8.42572 15.942 8.48729 15.8771L9.56517 14.7412C9.59482 14.7099 9.61136 14.6685 9.61136 14.6254V13.0217C9.61136 12.9288 9.68662 12.8535 9.77952 12.8535H8.42288C8.32998 12.8535 8.25472 12.9288 8.25472 13.0217V14.6254C8.25472 14.6685 8.23818 14.7099 8.20853 14.7412L7.13065 15.8771C7.06908 15.942 7.06908 16.0438 7.13065 16.1086L8.20853 17.2445C8.23818 17.2758 8.25472 17.3172 8.25472 17.3603V18.964C8.25472 19.0569 8.32998 19.1321 8.42288 19.1321H9.77952C9.68662 19.1321 9.61136 19.0569 9.61136 18.964Z" fill="#B3D34C"/>
<path d="M11.1374 17.8114C10.8936 17.5801 10.5743 17.4527 10.2383 17.4527H9.91372V17.1281C9.91372 16.7922 9.78646 16.4731 9.55531 16.2293L9.31738 15.9786L9.55499 15.7282C9.78646 15.4841 9.91372 15.1649 9.91372 14.8291V14.5045H10.2383C10.5743 14.5045 10.8937 14.3771 11.1374 14.1459L11.3879 13.9082L11.6383 14.1458C11.882 14.3771 12.2013 14.5045 12.5373 14.5045H12.862V14.8291C12.862 15.1649 12.9892 15.4841 13.2203 15.7278L13.4582 15.9786L13.2206 16.229C12.9892 16.4732 12.8619 16.7924 12.8619 17.1281V17.4527H12.5373C12.2013 17.4527 11.882 17.5801 11.6382 17.8114L11.3878 18.049L11.1374 17.8114Z" fill="white"/>
<path d="M10.89 16.2407L10.652 15.99L10.8896 15.7396C11.1211 15.4955 11.2484 15.1763 11.2484 14.8405V14.0459L11.1311 14.1572C10.8873 14.3885 10.5681 14.5159 10.232 14.5159H9.90738V14.8405C9.90738 15.1763 9.78011 15.4955 9.54864 15.7396L9.31104 15.99L9.54896 16.2407C9.78011 16.4844 9.90738 16.8036 9.90738 17.1395V17.4641H10.232C10.568 17.4641 10.8873 17.5915 11.1311 17.8228L11.2483 17.9341V17.1395C11.2484 16.8036 11.1211 16.4844 10.89 16.2407Z" fill="white"/>
<path d="M23.3226 20.0615L15.8837 20.0655C14.2802 20.0655 12.4226 21.2222 11.8869 22.6381L9.19184 22.726C8.67128 22.726 7.73597 22.9764 7.52272 23.4151L2.69908 22.3585C1.95901 22.1153 1.35422 21.6149 1.12185 22.3585C0.924298 22.9906 0.754005 22.5976 1.33316 22.9189L10.5172 27.2581C11.2305 27.5951 12.0309 27.7024 12.8078 27.5649L21.3219 25.7553C21.4346 25.7313 21.5495 25.7192 21.6646 25.7192H23.3226V20.0615Z" fill="#FFCEBE"/>
<path d="M13.9568 6.9736H8.82615C8.36231 6.9736 7.98633 6.59761 7.98633 6.13377C7.98633 5.66993 8.36231 5.29395 8.82615 5.29395H13.9568C14.4206 5.29395 14.7966 5.66993 14.7966 6.13377C14.7966 6.59761 14.4206 6.9736 13.9568 6.9736Z" fill="#0C68AE"/>
<path d="M10.0161 6.13377C10.0161 5.66993 10.392 5.29395 10.8559 5.29395H8.82615C8.36231 5.29395 7.98633 5.66993 7.98633 6.13377C7.98633 6.59761 8.36231 6.9736 8.82615 6.9736H10.8559C10.3921 6.9736 10.0161 6.59761 10.0161 6.13377Z" fill="#005596"/>
<path d="M13.9568 8.65719H8.82615C8.36231 8.65719 7.98633 8.28121 7.98633 7.81736C7.98633 7.35352 8.36231 6.97754 8.82615 6.97754H13.9568C14.4206 6.97754 14.7966 7.35352 14.7966 7.81736C14.7966 8.28121 14.4206 8.65719 13.9568 8.65719Z" fill="#0C68AE"/>
<path d="M10.0161 7.81736C10.0161 7.35352 10.392 6.97754 10.8559 6.97754H8.82615C8.36231 6.97754 7.98633 7.35352 7.98633 7.81736C7.98633 8.28121 8.36231 8.65719 8.82615 8.65719H10.8559C10.3921 8.65719 10.0161 8.28121 10.0161 7.81736Z" fill="#005596"/>
<path d="M32.7241 30.5H25.2739C25.1221 30.5 24.999 30.3434 24.999 30.1502V18.8498C24.999 18.6566 25.1221 18.5 25.2739 18.5H32.7241C32.8759 18.5 32.999 18.6566 32.999 18.8498V30.1502C32.999 30.3434 32.8759 30.5 32.7241 30.5Z" fill="#005596"/>
<path d="M28.362 22.9782L27.1359 21.7521L28.362 20.526C28.4399 20.4482 28.4399 20.3219 28.362 20.244L27.1217 19.0037C27.0438 18.9258 26.9175 18.9258 26.8397 19.0037L25.5994 20.244C25.5216 20.3219 25.5216 20.4482 25.5994 20.526L26.8255 21.7521L25.5994 22.9781C25.5216 23.056 25.5216 23.1823 25.5994 23.2601L26.8255 24.4861L25.5994 25.7122C25.5216 25.7901 25.5216 25.9164 25.5994 25.9942L26.8255 27.2203L25.5994 28.4464C25.5216 28.5242 25.5216 28.6505 25.5994 28.7283L26.8397 29.9686C26.9175 30.0465 27.0438 30.0465 27.1217 29.9686L28.362 28.7283C28.4399 28.6504 28.4399 28.5242 28.362 28.4464L27.136 27.2203L28.362 25.9942C28.4399 25.9163 28.4399 25.7901 28.362 25.7122L27.1359 24.4861L28.362 23.2601C28.4398 23.1823 28.4398 23.056 28.362 22.9782Z" fill="#D6F571"/>
<path d="M8.41775 19.6055H9.89527L10.9397 20.5965C11.0657 20.7161 11.2273 20.7758 11.389 20.7758C11.5506 20.7758 11.7123 20.716 11.8382 20.5965L12.8827 19.6055H14.3602C14.7201 19.6055 15.0128 19.3127 15.0128 18.9528V17.4753L16.0038 16.431C16.243 16.1791 16.243 15.7843 16.0038 15.5325L15.0128 14.488V13.0105C15.0128 12.6506 14.7201 12.3578 14.3602 12.3578H12.8826L11.8382 11.3668C11.5863 11.1277 11.1916 11.1278 10.9397 11.3668L9.89527 12.3578H8.41775C8.05786 12.3578 7.76508 12.6506 7.76508 13.0105V14.488L6.77415 15.5323C6.53493 15.7843 6.53493 16.1791 6.77409 16.4309L7.76508 17.4753V18.9528C7.76508 19.3126 8.05786 19.6055 8.41775 19.6055ZM7.68362 15.9816L8.55478 15.0636C8.67041 14.9418 8.73411 14.7822 8.73411 14.6142V13.3268H10.0215C10.1895 13.3268 10.349 13.2631 10.4707 13.1476L11.3889 12.2764L12.3071 13.1477C12.429 13.2632 12.5885 13.3268 12.7564 13.3268H14.0437V14.6142C14.0437 14.7822 14.1074 14.9418 14.223 15.0634L15.0942 15.9816L14.223 16.8998C14.1074 17.0215 14.0437 17.1811 14.0437 17.3491V18.6365H12.7563C12.5884 18.6365 12.4289 18.7001 12.307 18.8157L11.3888 19.6869L10.4707 18.8158C10.349 18.7002 10.1894 18.6365 10.0214 18.6365H8.73398V17.3491C8.73398 17.1811 8.67028 17.0215 8.55478 16.8999L7.68362 15.9816Z" fill="#4E4E4E"/>
<path d="M9.20233 16.5706C9.34775 16.724 9.42779 16.9248 9.42779 17.1361V17.4607C9.42779 17.7284 9.64472 17.9452 9.9123 17.9452H10.2369C10.4484 17.9452 10.6492 18.0253 10.8025 18.1708L11.0529 18.4084C11.1464 18.4971 11.2664 18.5415 11.3864 18.5415C11.5064 18.5415 11.6264 18.4971 11.7199 18.4084L11.9703 18.1708C12.1236 18.0253 12.3244 17.9452 12.5358 17.9452H12.8604C13.128 17.9452 13.3449 17.7284 13.3449 17.4607V17.1361C13.3449 16.9248 13.4252 16.7239 13.5706 16.5704L13.8082 16.32C13.9857 16.1331 13.9856 15.8399 13.8082 15.653L13.5705 15.4026C13.4251 15.2491 13.345 15.0483 13.345 14.8371V14.5125C13.345 14.2448 13.1281 14.0279 12.8605 14.0279H12.5359C12.3245 14.0279 12.1236 13.9478 11.9703 13.8023L11.7199 13.5647C11.533 13.3873 11.2398 13.3873 11.0529 13.5647L10.8025 13.8024C10.6492 13.9478 10.4484 14.0279 10.237 14.0279H9.91237C9.64479 14.0279 9.42785 14.2448 9.42785 14.5125V14.8371C9.42785 15.0484 9.34768 15.2492 9.2022 15.4027L8.96459 15.6531C8.78719 15.84 8.78719 16.1331 8.96459 16.32L9.20233 16.5706ZM10.3904 14.9905C10.7574 14.9593 11.1036 14.8167 11.3865 14.5794C11.6694 14.8166 12.0156 14.9593 12.3826 14.9905C12.4137 15.3573 12.5563 15.7035 12.7937 15.9866C12.5565 16.2697 12.4138 16.6158 12.3826 16.9827C12.0156 17.0139 11.6693 17.1565 11.3865 17.3937C11.1036 17.1565 10.7574 17.0139 10.3904 16.9827C10.3592 16.6157 10.2166 16.2696 9.97929 15.9866C10.2165 15.7035 10.3592 15.3574 10.3904 14.9905Z" fill="#4E4E4E"/>
<path d="M32.5917 22.4447C32.8594 22.4447 33.0762 22.2278 33.0762 21.9602V19.2568C33.0762 18.8115 32.714 18.4493 32.2687 18.4493H23.5151C23.0698 18.4493 22.7076 18.8115 22.7076 19.2568V20.0319H20.8114C21.2152 17.8531 20.6379 15.5595 19.1661 13.8234L17.4479 11.7967C17.2749 11.5926 16.9691 11.5673 16.7651 11.7404C16.5609 11.9135 16.5357 12.2192 16.7088 12.4233L18.427 14.45C19.7482 16.0084 20.2412 18.083 19.8235 20.0318H17.5063H16.9249C16.6572 20.0318 16.4404 20.2487 16.4404 20.5163C16.4404 20.784 16.6572 21.0009 16.9249 21.0009H17.5063H22.7076V26.8608H21.5342C21.3857 26.8608 21.2366 26.8765 21.0908 26.9075L12.5851 28.7154C11.9056 28.834 11.2172 28.741 10.5937 28.4462L1.42551 24.1145C1.05754 23.9029 0.882855 23.4586 1.0098 23.0523C1.08319 22.8175 1.24404 22.6262 1.46279 22.5136C1.68159 22.401 1.93083 22.3812 2.16449 22.4581L6.84123 23.9947C6.82889 24.0797 6.82217 24.1664 6.82217 24.2547C6.82217 25.2471 7.62956 26.0545 8.62198 26.0545H17.2326C17.5002 26.0545 17.7171 25.8376 17.7171 25.57C17.7171 25.3023 17.5002 25.0855 17.2326 25.0855H8.62211C8.16402 25.0855 7.79133 24.7128 7.79133 24.2547C7.79133 23.7967 8.16402 23.424 8.62211 23.424H11.9793C12.1808 23.424 12.3612 23.2993 12.4325 23.1109C12.8226 22.08 13.6963 21.3209 14.7697 21.0804C15.0308 21.0219 15.195 20.7628 15.1366 20.5017C15.078 20.2406 14.8189 20.076 14.5579 20.1348C13.2764 20.4218 12.2144 21.2783 11.659 22.4549H8.62211C8.0664 22.4549 7.56884 22.7081 7.2384 23.1051L3.64944 21.926L3.42391 21.4468C2.33711 19.1376 2.70489 16.3906 4.36083 14.4487L8.89227 9.13477H13.9208L15.2467 10.6987C15.4197 10.9028 15.7255 10.9281 15.9296 10.7549C16.1336 10.5819 16.1588 10.2762 15.9858 10.0721L15.2128 9.16022L16.5675 9.78008C16.7456 9.86154 16.9324 9.90004 17.1166 9.90004C17.619 9.90004 18.1005 9.61276 18.3229 9.12682C18.47 8.80517 18.4831 8.4454 18.3598 8.1138C18.2364 7.78226 17.9912 7.51862 17.6695 7.37146L16.4764 6.8255L17.623 5.93109C17.902 5.71357 18.0795 5.40038 18.1229 5.04934C18.1663 4.69829 18.0703 4.35131 17.8528 4.07243C17.6353 3.79347 17.3221 3.61595 16.971 3.57254C16.6202 3.52906 16.2731 3.62499 15.994 3.84264L14.5649 4.95734C14.4055 4.87388 14.2271 4.82284 14.038 4.81076L15.8275 1.71129C15.9735 1.4585 15.9734 1.15655 15.8275 0.903762C15.6816 0.650975 15.4201 0.5 15.1282 0.5H7.64765C7.35565 0.5 7.09427 0.650975 6.94827 0.903827C6.80234 1.15661 6.80234 1.4585 6.94827 1.71129L8.73775 4.81076C8.04702 4.85482 7.49816 5.4292 7.49816 6.13084C7.49816 6.44939 7.61128 6.74191 7.7994 6.97066C7.61135 7.19942 7.49816 7.49194 7.49816 7.81049C7.49816 8.19293 7.66212 8.537 7.92221 8.779L3.62353 13.8199C1.8024 15.9556 1.33856 18.9382 2.39732 21.5164C1.93554 21.3838 1.44909 21.4308 1.01942 21.6519C0.568114 21.8841 0.236254 22.2788 0.0848914 22.7631C-0.179912 23.6105 0.191355 24.5381 0.967742 24.9688C0.976916 24.9739 0.986283 24.9787 0.99578 24.9832L10.1798 29.3224C10.7581 29.5957 11.3795 29.7347 12.0089 29.7347C12.2593 29.7347 12.5111 29.7126 12.7619 29.6684C12.7673 29.6673 12.7728 29.6663 12.7782 29.6651L21.2922 27.8555C21.3717 27.8385 21.4532 27.8299 21.5342 27.8299H22.7076V29.6925C22.7076 30.1378 23.0698 30.5 23.5151 30.5H32.2687C32.714 30.5 33.0762 30.1378 33.0762 29.6925V24.2213C33.0762 23.9536 32.8594 23.7368 32.5917 23.7368C32.3241 23.7368 32.1072 23.9536 32.1072 24.2213V29.531H28.2375L28.7089 29.0595C28.8382 28.9303 28.9094 28.7585 28.9094 28.5758C28.9094 28.3931 28.8382 28.2214 28.7091 28.0922L27.8256 27.2087L28.7089 26.3254C28.8382 26.1962 28.9094 26.0244 28.9094 25.8417C28.9094 25.6591 28.8382 25.4873 28.7091 25.3581L27.8256 24.4746L28.7091 23.5913C28.8382 23.4621 28.9094 23.2903 28.9094 23.1077C28.9094 22.925 28.8382 22.7532 28.7091 22.624L27.8256 21.7406L28.7091 20.8572C28.8382 20.728 28.9094 20.5562 28.9094 20.3736C28.9094 20.1908 28.8382 20.019 28.7091 19.89L28.2375 19.4184H32.1072V21.9602C32.1072 22.2278 32.3241 22.4447 32.5917 22.4447ZM8.8225 7.45511H13.9531C14.1491 7.45511 14.3084 7.61449 14.3084 7.81043C14.3084 8.00636 14.1491 8.16574 13.9531 8.16574H8.8225C8.62657 8.16574 8.46719 8.00636 8.46719 7.81043C8.46719 7.61449 8.62663 7.45511 8.8225 7.45511ZM17.4515 8.45179C17.4846 8.54075 17.481 8.63727 17.4416 8.72351C17.36 8.90175 17.1487 8.98037 16.9707 8.89878H16.9706L15.2426 8.10805C15.2647 8.01218 15.2775 7.91282 15.2775 7.81036C15.2775 7.6276 15.2403 7.45337 15.173 7.29484L17.2663 8.25263C17.3526 8.29216 17.4183 8.36284 17.4515 8.45179ZM16.59 4.60668C16.6531 4.55746 16.7291 4.53149 16.8078 4.53149C16.8225 4.53149 16.8373 4.53239 16.8521 4.5342C16.9463 4.54589 17.0304 4.5935 17.0887 4.66831C17.1471 4.74312 17.1728 4.83628 17.1611 4.93047C17.1495 5.02466 17.1019 5.10864 17.0271 5.16698L15.4832 6.37116L15.2695 6.27335C15.2746 6.22645 15.2775 6.17897 15.2775 6.13077C15.2775 5.97618 15.2495 5.82837 15.2006 5.69038L16.59 4.60668ZM14.8483 1.46903L12.9214 4.80643H9.8542L7.92738 1.46903H14.8483ZM8.8225 5.77546H13.9531C14.1491 5.77546 14.3084 5.93484 14.3084 6.13077C14.3084 6.32671 14.1491 6.48608 13.9531 6.48608H8.8225C8.62657 6.48608 8.46719 6.32671 8.46719 6.13077C8.46719 5.93484 8.62663 5.77546 8.8225 5.77546ZM25.2613 23.5913L26.1447 24.4746L25.2611 25.3583C24.9946 25.6249 24.9946 26.0587 25.2612 26.3254L26.1447 27.2088L25.2611 28.0924C24.9946 28.3591 24.9946 28.7929 25.2612 29.0595L25.7328 29.5311H23.6766V19.4183H25.7328L25.2612 19.8899C24.9946 20.1565 24.9946 20.5903 25.2612 20.8572L26.1447 21.7406L25.2611 22.6242C24.9947 22.8907 24.9947 23.3245 25.2613 23.5913ZM26.9852 29.4129L26.1481 28.5758L26.9852 27.7387L27.8223 28.5758L26.9852 29.4129ZM26.9852 26.6788L26.1481 25.8417L26.9852 25.0046L27.8223 25.8417L26.9852 26.6788ZM26.9852 23.9447L26.1481 23.1076L26.9852 22.2705L27.8223 23.1077L26.9852 23.9447ZM26.9852 21.2106L26.1481 20.3735L26.9852 19.5364L27.8223 20.3735L26.9852 21.2106Z" fill="#4E4E4E"/>
</svg>
