<svg width="32" height="28" viewBox="0 0 32 28" fill="none" xmlns="http://www.w3.org/2000/svg">
<path d="M28.9604 3.25839C25.7199 0.15371 20.5762 0.263745 17.4714 3.50421L17.1158 3.87538C16.6337 4.37854 15.8295 4.37854 15.3475 3.87538L14.9919 3.50421C13.9364 2.40264 12.6452 1.66323 11.2734 1.28844H10.4023L7.79208 2.85933L6.47161 6.36344L6.13611 9.05067L6.33595 10.5015L6.81881 11.1593L6.6731 11.7275L8.07277 14.3021L9.07387 15.4872H26.7694L29.769 14.0943C32.2833 10.8486 31.9909 6.16189 28.9604 3.25839Z" fill="#D6F571"/>
<path d="M26.263 11.1595H24.4794C22.6006 11.1595 21.0503 12.6345 20.9272 14.4835L20.7604 14.8131L22.3746 17.5104V21.0658L22.7247 21.5108C25.7978 18.3033 28.8688 15.0981 29.2046 14.7476C29.4058 14.5375 29.5932 14.3194 29.7674 14.0945C29.4693 12.4319 28.008 11.1595 26.263 11.1595Z" fill="#005596"/>
<path d="M11.5335 14.4835C11.4104 12.6345 9.8602 11.1595 7.9813 11.1595H6.81783L6.67212 11.7277L8.07178 14.3023L9.5271 16.0252H10.3176L10.6486 16.751L11.7498 15.1196L11.5335 14.4835Z" fill="#005596"/>
<path d="M16.2326 13.2113C18.1962 13.2113 19.788 11.6195 19.788 9.65587C19.788 7.69227 18.1962 6.10045 16.2326 6.10045C14.269 6.10045 12.6772 7.69227 12.6772 9.65587C12.6772 11.6195 14.269 13.2113 16.2326 13.2113Z" fill="#FFDECF"/>
<path d="M15.8253 9.65587C15.8253 8.25761 16.6328 7.04846 17.8066 6.46776C17.332 6.23298 16.7979 6.10045 16.2326 6.10045C14.269 6.10045 12.6772 7.69224 12.6772 9.65587C12.6772 11.6195 14.269 13.2113 16.2326 13.2113C16.7979 13.2113 17.3321 13.0788 17.8066 12.844C16.6328 12.2633 15.8253 11.0542 15.8253 9.65587Z" fill="#FFCEBE"/>
<path d="M25.374 11.16C26.7203 11.16 27.8116 10.0687 27.8116 8.7224C27.8116 7.37612 26.7203 6.28475 25.374 6.28475C24.0277 6.28475 22.9363 7.37612 22.9363 8.7224C22.9363 10.0687 24.0277 11.16 25.374 11.16Z" fill="#FFDECF"/>
<path d="M7.08987 11.16C8.43615 11.16 9.52752 10.0687 9.52752 8.7224C9.52752 7.37612 8.43615 6.28475 7.08987 6.28475C5.74359 6.28475 4.65222 7.37612 4.65222 8.7224C4.65222 10.0687 5.74359 11.16 7.08987 11.16Z" fill="#FFCEBE"/>
<path d="M17.5307 13.2132H14.9292C12.9283 13.2132 11.1835 14.3607 10.3169 16.0293L10.7985 17.0853L18.3134 25.0697L19.1486 25.2472C20.2175 24.1316 21.4708 22.8235 22.7246 21.5149V18.4072C22.7247 15.5505 20.3874 13.2132 17.5307 13.2132Z" fill="#005596"/>
<path d="M14.1393 26.1071C15.2817 27.2994 17.1867 27.2994 18.329 26.1071C19.5425 24.8406 21.136 23.1774 22.7289 21.5149V18.4072C22.7289 15.5505 20.3916 13.2132 17.535 13.2132H14.9335C12.0768 13.2132 9.73956 15.5505 9.73956 18.4072V21.5149C11.3324 23.1775 12.9258 24.8406 14.1393 26.1071Z" stroke="#4E4E4E" stroke-miterlimit="10" stroke-linecap="round" stroke-linejoin="round"/>
<path d="M25.3759 11.16C26.7222 11.16 27.8136 10.0687 27.8136 8.7224C27.8136 7.37612 26.7222 6.28475 25.3759 6.28475C24.0297 6.28475 22.9383 7.37612 22.9383 8.7224C22.9383 10.0687 24.0297 11.16 25.3759 11.16Z" stroke="#4E4E4E" stroke-miterlimit="10" stroke-linecap="round" stroke-linejoin="round"/>
<path d="M7.09182 11.16C8.4381 11.16 9.52947 10.0687 9.52947 8.7224C9.52947 7.37612 8.4381 6.28475 7.09182 6.28475C5.74555 6.28475 4.65417 7.37612 4.65417 8.7224C4.65417 10.0687 5.74555 11.16 7.09182 11.16Z" stroke="#4E4E4E" stroke-miterlimit="10" stroke-linecap="round" stroke-linejoin="round"/>
<path d="M29.2054 14.7476C29.4066 14.5375 29.594 14.3194 29.7682 14.0945C29.47 12.4319 28.0087 11.1595 26.2638 11.1595H24.4801C22.6012 11.1595 21.051 12.6345 20.9279 14.4835C22.0267 15.4377 22.7254 16.8423 22.7254 18.4031V21.5108C25.7985 18.3033 28.8695 15.0981 29.2054 14.7476Z" stroke="#4E4E4E" stroke-miterlimit="10" stroke-linecap="round" stroke-linejoin="round"/>
<path d="M7.98626 11.1595H6.20267C4.45763 11.1595 2.99641 12.4319 2.69824 14.0946C2.87246 14.3195 3.05985 14.5376 3.26104 14.7476C3.59691 15.0982 6.66788 18.3034 9.74099 21.5109V18.4031C9.74099 16.8424 10.4396 15.4378 11.5386 14.4836C11.4153 12.6345 9.86512 11.1595 7.98626 11.1595Z" stroke="#4E4E4E" stroke-miterlimit="10" stroke-linecap="round" stroke-linejoin="round"/>
<path d="M7.93221 1.0875C6.32258 1.3251 4.76855 2.04704 3.50423 3.25833C0.263768 6.36308 0.153673 11.5069 3.25842 14.7474C3.76837 15.2797 10.5836 22.3929 14.1381 26.1029C15.2805 27.2951 17.1855 27.2951 18.3278 26.1029C21.8823 22.3929 28.6977 15.2796 29.2076 14.7474C32.3122 11.5069 32.2022 6.36308 28.9617 3.25839C25.7212 0.15371 20.5774 0.263745 17.4727 3.50421L17.1171 3.87538C16.635 4.37854 15.8308 4.37854 15.3488 3.87538L14.9932 3.50421C13.6349 2.08657 11.8863 1.26803 10.0777 1.05568" stroke="#4E4E4E" stroke-miterlimit="10" stroke-linecap="round" stroke-linejoin="round"/>
<path d="M19.6249 8.58312C19.1699 7.14391 17.8243 6.10045 16.2346 6.10045C14.2709 6.10045 12.6791 7.69224 12.6791 9.65587C12.6791 11.6195 14.2709 13.2113 16.2346 13.2113C17.8243 13.2113 19.1699 12.1678 19.6249 10.7286" stroke="#4E4E4E" stroke-miterlimit="10" stroke-linecap="round" stroke-linejoin="round"/>
</svg>
