<svg width="25" height="26" viewBox="0 0 25 26" fill="none" xmlns="http://www.w3.org/2000/svg">
<path d="M14.4953 5.73299C14.2862 5.65688 14.0593 5.64448 13.8431 5.69737C13.627 5.75025 13.4314 5.86604 13.2811 6.03009C13.1307 6.19414 13.0324 6.39909 12.9986 6.61901C12.9647 6.83893 12.9969 7.06395 13.0909 7.26561C13.185 7.46727 13.3367 7.63652 13.5269 7.75195C13.7171 7.86737 13.9373 7.9238 14.1596 7.91409C14.3819 7.90438 14.5963 7.82896 14.7758 7.69739C14.9552 7.56581 15.0916 7.38397 15.1677 7.17488C15.2697 6.89451 15.2562 6.58509 15.1301 6.31468C15.004 6.04428 14.7757 5.83504 14.4953 5.73299ZM14.4627 6.91838C14.4374 6.98806 14.392 7.04867 14.3322 7.09256C14.2724 7.13644 14.201 7.16163 14.127 7.16493C14.0529 7.16824 13.9795 7.14952 13.9161 7.11113C13.8526 7.07274 13.802 7.01641 13.7706 6.94926C13.7392 6.88211 13.7283 6.80715 13.7395 6.73386C13.7507 6.66056 13.7833 6.59222 13.8333 6.53746C13.8833 6.48271 13.9484 6.444 14.0204 6.42623C14.0923 6.40846 14.168 6.41242 14.2377 6.43762C14.2841 6.45438 14.3267 6.48011 14.3631 6.51335C14.3995 6.54659 14.429 6.58669 14.4499 6.63134C14.4708 6.67599 14.4827 6.72433 14.4849 6.77358C14.4871 6.82284 14.4795 6.87204 14.4627 6.91838Z" fill="#4E4E4E" stroke="#4E4E4E" stroke-width="0.25"/>
<path d="M12.6252 20.8749C12.9218 20.8749 13.2119 20.787 13.4585 20.6222C13.7052 20.4573 13.8975 20.2231 14.011 19.949C14.1245 19.6749 14.1542 19.3733 14.0964 19.0823C14.0385 18.7913 13.8956 18.524 13.6858 18.3143C13.4761 18.1045 13.2088 17.9616 12.9178 17.9037C12.6268 17.8459 12.3252 17.8756 12.0511 17.9891C11.777 18.1026 11.5428 18.2949 11.378 18.5416C11.2131 18.7882 11.1252 19.0783 11.1252 19.3749C11.1252 19.7728 11.2832 20.1543 11.5645 20.4356C11.8458 20.7169 12.2273 20.8749 12.6252 20.8749ZM12.6252 18.6249C12.7735 18.6249 12.9185 18.6689 13.0419 18.7513C13.1652 18.8337 13.2613 18.9509 13.3181 19.0879C13.3749 19.225 13.3897 19.3758 13.3608 19.5213C13.3318 19.6667 13.2604 19.8004 13.1555 19.9053C13.0506 20.0102 12.917 20.0816 12.7715 20.1105C12.626 20.1395 12.4752 20.1246 12.3382 20.0678C12.2011 20.0111 12.084 19.915 12.0016 19.7916C11.9192 19.6683 11.8752 19.5233 11.8752 19.3749C11.8752 19.176 11.9542 18.9852 12.0948 18.8446C12.2355 18.7039 12.4263 18.6249 12.6252 18.6249Z" fill="#4E4E4E" stroke="#4E4E4E" stroke-width="0.25"/>
<path d="M9.59849 20.6286V22.0266C9.59849 22.1261 9.638 22.2214 9.70833 22.2918C9.77866 22.3621 9.87404 22.4016 9.9735 22.4016H11.3715L12.36 23.3901C12.4304 23.4604 12.5257 23.4999 12.6252 23.4999C12.7246 23.4999 12.82 23.4604 12.8903 23.3901L13.8788 22.4016H15.2768C15.3763 22.4016 15.4717 22.3621 15.542 22.2918C15.6123 22.2214 15.6518 22.1261 15.6518 22.0266V20.6286L16.6403 19.6401C16.7106 19.5698 16.7501 19.4744 16.7501 19.3749C16.7501 19.2755 16.7106 19.1801 16.6403 19.1098L15.6518 18.1213V16.7233C15.6518 16.6238 15.6123 16.5284 15.542 16.4581C15.4717 16.3878 15.3763 16.3483 15.2768 16.3483H13.8788L12.8903 15.3598C12.82 15.2895 12.7246 15.25 12.6252 15.25C12.5257 15.25 12.4304 15.2895 12.36 15.3598L11.3715 16.3483H9.9735C9.87404 16.3483 9.77866 16.3878 9.70833 16.4581C9.638 16.5284 9.59849 16.6238 9.59849 16.7233V18.1213L8.60998 19.1098C8.53968 19.1801 8.50018 19.2755 8.50018 19.3749C8.50018 19.4744 8.53968 19.5698 8.60998 19.6401L9.59849 20.6286ZM10.2386 18.5417C10.2735 18.5068 10.3011 18.4654 10.32 18.4199C10.3389 18.3743 10.3485 18.3255 10.3485 18.2762V17.0983H11.5268C11.6262 17.0983 11.7216 17.0587 11.7919 16.9884L12.6252 16.1552L13.4584 16.9884C13.5287 17.0587 13.6241 17.0983 13.7235 17.0983H14.9018V18.2762C14.9018 18.3255 14.9115 18.3743 14.9303 18.4199C14.9492 18.4654 14.9768 18.5068 15.0117 18.5417L15.845 19.3749L15.0117 20.2082C14.9414 20.2785 14.9018 20.3739 14.9018 20.4733V21.6516H13.7235C13.6241 21.6516 13.5287 21.6911 13.4584 21.7615L12.6252 22.5947L11.7919 21.7615C11.7216 21.6911 11.6262 21.6516 11.5268 21.6516H10.3485V20.4733C10.3485 20.3739 10.309 20.2785 10.2386 20.2082L9.40537 19.3749L10.2386 18.5417Z" fill="#4E4E4E" stroke="#4E4E4E" stroke-width="0.25"/>
<path d="M24.2334 14.0124L22.3584 8.01227C22.3345 7.93608 22.2868 7.86953 22.2224 7.82231C22.158 7.7751 22.0802 7.74968 22.0003 7.74976H18.9492L20.1024 4.58135C20.1192 4.53501 20.1268 4.48581 20.1246 4.43655C20.1224 4.3873 20.1105 4.33896 20.0896 4.29431C20.0687 4.24966 20.0392 4.20956 20.0028 4.17632C19.9664 4.14308 19.9238 4.11735 19.8774 4.10059L11.421 1.02255C11.3747 1.00571 11.3255 0.998175 11.2762 1.00037C11.227 1.00257 11.1786 1.01446 11.134 1.03536C11.0893 1.05626 11.0492 1.08576 11.016 1.12217C10.9828 1.15858 10.957 1.20118 10.9403 1.24755L8.57511 7.74976H3.25003C3.17017 7.74968 3.09236 7.7751 3.02794 7.82231C2.96352 7.86953 2.91586 7.93608 2.8919 8.01227L1.01688 14.0124C1.00556 14.0488 0.999873 14.0867 1 14.1249V24.625C1 24.7245 1.03951 24.8198 1.10984 24.8902C1.18017 24.9605 1.27555 25 1.37501 25H23.8753C23.9748 25 24.0702 24.9605 24.1405 24.8902C24.2108 24.8198 24.2503 24.7245 24.2503 24.625V14.1249C24.2504 14.0867 24.2448 14.0488 24.2334 14.0124ZM11.517 1.85543L19.2695 4.67697L16.7877 11.4998H15.9882L17.795 6.53512C17.8118 6.48879 17.8194 6.43958 17.8172 6.39033C17.815 6.34108 17.8031 6.29274 17.7822 6.24809C17.7613 6.20343 17.7318 6.16334 17.6954 6.1301C17.659 6.09686 17.6163 6.07112 17.57 6.05437C17.4772 6.02085 17.392 5.96938 17.3192 5.9029C17.2464 5.83642 17.1874 5.75623 17.1456 5.66693C17.1038 5.57762 17.08 5.48095 17.0756 5.38244C17.0712 5.28394 17.0863 5.18553 17.12 5.09285C17.1368 5.04654 17.1442 4.99737 17.142 4.94816C17.1398 4.89895 17.1279 4.85066 17.107 4.80605C17.0861 4.76144 17.0566 4.72138 17.0202 4.68817C16.9839 4.65495 16.9413 4.62923 16.895 4.61247L13.3752 3.32995C13.3288 3.31312 13.2796 3.30558 13.2304 3.30778C13.1811 3.30998 13.1328 3.32187 13.0881 3.34276C13.0435 3.36366 13.0034 3.39316 12.9701 3.42957C12.9369 3.46598 12.9112 3.50859 12.8944 3.55496C12.8609 3.64765 12.8094 3.73282 12.743 3.80561C12.6765 3.87841 12.5964 3.93738 12.5071 3.97918C12.4179 4.02097 12.3212 4.04476 12.2228 4.04918C12.1243 4.05361 12.0259 4.03858 11.9333 4.00496C11.8869 3.98813 11.8377 3.98059 11.7885 3.98279C11.7392 3.98499 11.6909 3.99688 11.6462 4.01777C11.6016 4.03867 11.5615 4.06817 11.5283 4.10458C11.495 4.14099 11.4693 4.1836 11.4525 4.22997L8.80461 11.4998H8.0066L11.517 1.85543ZM17.8572 10.7498H18.6252C18.7247 10.7498 18.8201 10.7893 18.8904 10.8596C18.9607 10.93 19.0002 11.0254 19.0002 11.1248C19.0002 11.2243 18.9607 11.3197 18.8904 11.39C18.8201 11.4603 18.7247 11.4998 18.6252 11.4998H17.5842L17.8572 10.7498ZM16.9782 6.58725L15.1898 11.4998H9.60224L12.0443 4.7906C12.311 4.8158 12.5795 4.76941 12.8223 4.65623C13.0651 4.54305 13.2733 4.36717 13.4254 4.14672L16.3336 5.20498C16.3082 5.47191 16.3546 5.74077 16.4679 5.98378C16.5813 6.22678 16.7574 6.43512 16.9782 6.58725ZM3.52566 8.49977H8.3006L7.75459 9.99979H6.62508C6.32671 9.99979 6.04055 10.1183 5.82957 10.3293C5.61859 10.5403 5.50006 10.8264 5.50006 11.1248C5.50006 11.4232 5.61859 11.7093 5.82957 11.9203C6.04055 12.1313 6.32671 12.2498 6.62508 12.2498H18.6252C18.9236 12.2498 19.2098 12.1313 19.4207 11.9203C19.6317 11.7093 19.7503 11.4232 19.7503 11.1248C19.7503 10.8264 19.6317 10.5403 19.4207 10.3293C19.2098 10.1183 18.9236 9.99979 18.6252 9.99979H18.1302L18.6762 8.49977H21.7247L23.3653 13.7498H1.88501L3.52566 8.49977ZM7.48159 10.7498L7.20859 11.4998H6.62508C6.52562 11.4998 6.43024 11.4603 6.35991 11.39C6.28958 11.3197 6.25007 11.2243 6.25007 11.1248C6.25007 11.0254 6.28958 10.93 6.35991 10.8596C6.43024 10.7893 6.52562 10.7498 6.62508 10.7498H7.48159ZM23.5003 24.25H1.75001V14.4999H23.5003V24.25Z" fill="#4E4E4E" stroke="#4E4E4E" stroke-width="0.25"/>
</svg>
