<svg width="24" height="25" viewBox="0 0 24 25" fill="none" xmlns="http://www.w3.org/2000/svg">
<path d="M21.3548 9.01613H18.6452C17.5767 9.01745 16.711 9.88313 16.7097 10.9516V13.2742H15.5484V5.53226H19.0323C20.1007 5.53094 20.9664 4.66526 20.9677 3.59677V0.887097C20.9677 0.673324 20.7944 0.5 20.5806 0.5H17.871C16.8025 0.501323 15.9368 1.367 15.9355 2.43548V4.75806H15.5484C15.4798 4.75977 15.4129 4.78037 15.3548 4.81723C15.2968 4.78037 15.2299 4.75977 15.1613 4.75806C14.9475 4.75806 14.7742 4.93139 14.7742 5.14516V10.1774H13.6129V7.85484C13.6116 6.78635 12.7459 5.92068 11.6774 5.91936H8.96774C8.75397 5.91936 8.58064 6.09268 8.58064 6.30645V9.01613C8.58197 10.0846 9.44764 10.9503 10.5161 10.9516H14.7742V15.9839H8.58064V12.8871C8.58064 12.6733 8.40732 12.5 8.19355 12.5H7.03226V10.1774C7.03093 9.10894 6.16526 8.24326 5.09677 8.24194H2.3871C2.17332 8.24194 2 8.41526 2 8.62903V11.3387C2.00132 12.4072 2.867 13.2729 3.93548 13.2742H7.80645V15.9839H3.16129C2.94752 15.9839 2.77419 16.1572 2.77419 16.371V24.1129C2.77419 24.3267 2.94752 24.5 3.16129 24.5H18.6452C18.8589 24.5 19.0323 24.3267 19.0323 24.1129V16.371C19.0323 16.1572 18.8589 15.9839 18.6452 15.9839H15.5484V14.0484H19.8064C20.8749 14.0471 21.7406 13.1814 21.7419 12.1129V9.40323C21.7419 9.18945 21.5686 9.01613 21.3548 9.01613ZM16.7097 2.43548C16.7097 1.79417 17.2296 1.27419 17.871 1.27419H20.1935V3.59677C20.1935 4.23809 19.6736 4.75806 19.0323 4.75806H16.7097V2.43548ZM9.35484 9.01613V6.69355H11.6774C12.3187 6.69355 12.8387 7.21352 12.8387 7.85484V10.1774H10.5161C9.87481 10.1774 9.35484 9.65745 9.35484 9.01613ZM2.77419 11.3387V9.01613H5.09677C5.73809 9.01613 6.25806 9.5361 6.25806 10.1774V12.5H3.93548C3.29417 12.5 2.77419 11.98 2.77419 11.3387ZM3.54839 16.7581H4.66091C4.51896 17.303 4.09331 17.7285 3.54839 17.8702V16.7581ZM3.54839 23.7258V22.6137C4.09331 22.7554 4.51896 23.1809 4.66091 23.7258H3.54839ZM18.2581 23.7258H17.1455C17.2875 23.1809 17.7131 22.7554 18.2581 22.6137V23.7258ZM18.2581 16.7581V17.8702C17.7131 17.7285 17.2875 17.303 17.1455 16.7581H18.2581ZM16.3574 16.7581C16.5237 17.7307 17.2854 18.4924 18.2581 18.6588V21.8251C17.2854 21.9914 16.5237 22.7532 16.3574 23.7258H5.44909C5.28276 22.7532 4.52104 21.9914 3.54839 21.8251V18.6588C4.52104 18.4924 5.28276 17.7307 5.44909 16.7581H16.3574ZM20.9677 12.1129C20.9677 12.7542 20.4478 13.2742 19.8064 13.2742H17.4839V10.9516C17.4839 10.3103 18.0038 9.79032 18.6452 9.79032H20.9677V12.1129Z" fill="white" stroke="white" stroke-width="0.25"/>
<path d="M10.9033 22.5646C12.1859 22.5646 13.2258 21.5247 13.2258 20.242C13.2258 18.9594 12.1859 17.9194 10.9033 17.9194C9.62063 17.9194 8.58069 18.9594 8.58069 20.242C8.58201 21.5243 9.62101 22.5633 10.9033 22.5646ZM10.9033 18.6936C11.7584 18.6936 12.4517 19.3869 12.4517 20.242C12.4517 21.0971 11.7584 21.7904 10.9033 21.7904C10.0482 21.7904 9.35488 21.0971 9.35488 20.242C9.35488 19.3869 10.0482 18.6936 10.9033 18.6936Z" fill="white" stroke="white" stroke-width="0.25"/>
<path d="M14.3871 20.242H17.0968C17.3105 20.242 17.4839 20.0686 17.4839 19.8549C17.4839 19.6411 17.3105 19.4678 17.0968 19.4678H14.3871C14.1733 19.4678 14 19.6411 14 19.8549C14 20.0686 14.1733 20.242 14.3871 20.242Z" fill="white" stroke="white" stroke-width="0.25"/>
<path d="M14.3871 21.4031H15.1613C15.3751 21.4031 15.5484 21.2298 15.5484 21.016C15.5484 20.8022 15.3751 20.6289 15.1613 20.6289H14.3871C14.1733 20.6289 14 20.8022 14 21.016C14 21.2298 14.1733 21.4031 14.3871 21.4031Z" fill="#4E4E4E" stroke="#4E4E4E" stroke-width="0.25"/>
<path d="M16.1756 20.6602C16.1282 20.6789 16.0849 20.7065 16.0478 20.7415C15.9771 20.8156 15.9371 20.9138 15.9355 21.0163C15.9352 21.1191 15.9756 21.218 16.0478 21.2911C16.2005 21.4408 16.4447 21.4408 16.5975 21.2911C16.6697 21.218 16.7101 21.1191 16.7097 21.0163C16.7082 20.9138 16.6682 20.8156 16.5975 20.7415C16.4861 20.6316 16.3196 20.5995 16.1756 20.6602Z" fill="#4E4E4E" stroke="#4E4E4E" stroke-width="0.25"/>
</svg>
