<svg width="25" height="26" viewBox="0 0 25 26" fill="none" xmlns="http://www.w3.org/2000/svg">
<path d="M14.4952 5.73302C14.2861 5.65691 14.0591 5.64451 13.843 5.6974C13.6268 5.75028 13.4313 5.86607 13.2809 6.03012C13.1306 6.19417 13.0323 6.39912 12.9984 6.61904C12.9646 6.83896 12.9967 7.06398 13.0908 7.26564C13.1848 7.4673 13.3365 7.63655 13.5268 7.75198C13.717 7.8674 13.9372 7.92383 14.1595 7.91412C14.3818 7.90441 14.5962 7.829 14.7756 7.69742C14.9551 7.56584 15.0915 7.384 15.1676 7.17491C15.2696 6.89454 15.2561 6.58512 15.13 6.31471C15.0039 6.04431 14.7755 5.83507 14.4952 5.73302ZM14.4625 6.91841C14.4372 6.98809 14.3918 7.0487 14.3321 7.09259C14.2723 7.13647 14.2009 7.16166 14.1268 7.16496C14.0527 7.16827 13.9794 7.14955 13.9159 7.11116C13.8525 7.07277 13.8019 7.01644 13.7704 6.94929C13.739 6.88214 13.7282 6.80718 13.7394 6.73389C13.7505 6.66059 13.7831 6.59225 13.8331 6.53749C13.8831 6.48274 13.9482 6.44403 14.0202 6.42626C14.0922 6.40849 14.1678 6.41245 14.2375 6.43765C14.2839 6.45441 14.3265 6.48014 14.3629 6.51338C14.3993 6.54662 14.4288 6.58672 14.4497 6.63137C14.4706 6.67602 14.4825 6.72436 14.4847 6.77361C14.4869 6.82287 14.4794 6.87207 14.4625 6.91841Z" fill="#45AF63" stroke="#45AF63" stroke-width="0.25"/>
<path d="M12.625 20.8749C12.9217 20.8749 13.2117 20.7869 13.4584 20.6221C13.7051 20.4573 13.8973 20.223 14.0109 19.9489C14.1244 19.6748 14.1541 19.3732 14.0962 19.0823C14.0383 18.7913 13.8955 18.524 13.6857 18.3142C13.4759 18.1044 13.2086 17.9616 12.9177 17.9037C12.6267 17.8458 12.3251 17.8755 12.051 17.9891C11.7769 18.1026 11.5426 18.2949 11.3778 18.5415C11.213 18.7882 11.125 19.0782 11.125 19.3749C11.125 19.7727 11.283 20.1543 11.5643 20.4356C11.8457 20.7169 12.2272 20.8749 12.625 20.8749ZM12.625 18.6249C12.7734 18.6249 12.9184 18.6689 13.0417 18.7513C13.165 18.8337 13.2612 18.9508 13.3179 19.0879C13.3747 19.2249 13.3896 19.3757 13.3606 19.5212C13.3317 19.6667 13.2602 19.8003 13.1554 19.9052C13.0505 20.0101 12.9168 20.0816 12.7713 20.1105C12.6259 20.1394 12.4751 20.1246 12.338 20.0678C12.201 20.0111 12.0838 19.9149 12.0014 19.7916C11.919 19.6682 11.875 19.5232 11.875 19.3749C11.875 19.176 11.954 18.9852 12.0947 18.8446C12.2353 18.7039 12.4261 18.6249 12.625 18.6249Z" fill="#45AF63" stroke="#45AF63" stroke-width="0.25"/>
<path d="M9.59831 20.6286V22.0266C9.59831 22.126 9.63782 22.2214 9.70815 22.2917C9.77847 22.3621 9.87386 22.4016 9.97332 22.4016H11.3713L12.3598 23.3901C12.4302 23.4604 12.5255 23.4999 12.625 23.4999C12.7244 23.4999 12.8198 23.4604 12.8901 23.3901L13.8786 22.4016H15.2766C15.3761 22.4016 15.4715 22.3621 15.5418 22.2917C15.6121 22.2214 15.6516 22.126 15.6516 22.0266V20.6286L16.6402 19.64C16.7105 19.5697 16.75 19.4744 16.75 19.3749C16.75 19.2755 16.7105 19.1801 16.6402 19.1098L15.6516 18.1213V16.7233C15.6516 16.6238 15.6121 16.5284 15.5418 16.4581C15.4715 16.3878 15.3761 16.3482 15.2766 16.3482H13.8786L12.8901 15.3597C12.8198 15.2894 12.7244 15.2499 12.625 15.2499C12.5255 15.2499 12.4302 15.2894 12.3598 15.3597L11.3713 16.3482H9.97332C9.87386 16.3482 9.77847 16.3878 9.70815 16.4581C9.63782 16.5284 9.59831 16.6238 9.59831 16.7233V18.1213L8.6098 19.1098C8.53949 19.1801 8.5 19.2755 8.5 19.3749C8.5 19.4744 8.53949 19.5697 8.6098 19.64L9.59831 20.6286ZM10.2384 18.5417C10.2733 18.5068 10.301 18.4654 10.3198 18.4198C10.3387 18.3743 10.3484 18.3255 10.3483 18.2762V17.0983H11.5266C11.626 17.0982 11.7214 17.0587 11.7917 16.9884L12.625 16.1551L13.4582 16.9884C13.5285 17.0587 13.6239 17.0982 13.7234 17.0983H14.9016V18.2762C14.9016 18.3255 14.9113 18.3743 14.9301 18.4198C14.949 18.4654 14.9766 18.5068 15.0115 18.5417L15.8448 19.3749L15.0115 20.2082C14.9412 20.2785 14.9017 20.3739 14.9016 20.4733V21.6516H13.7234C13.6239 21.6516 13.5285 21.6911 13.4582 21.7614L12.625 22.5947L11.7917 21.7614C11.7214 21.6911 11.626 21.6516 11.5266 21.6516H10.3483V20.4733C10.3483 20.3739 10.3088 20.2785 10.2384 20.2082L9.40518 19.3749L10.2384 18.5417Z" fill="#45AF63" stroke="#45AF63" stroke-width="0.25"/>
<path d="M24.2334 14.0124L22.3584 8.01227C22.3345 7.93608 22.2868 7.86953 22.2224 7.82231C22.158 7.7751 22.0802 7.74968 22.0003 7.74976H18.9492L20.1024 4.58135C20.1192 4.53501 20.1268 4.48581 20.1246 4.43655C20.1224 4.3873 20.1105 4.33896 20.0896 4.29431C20.0687 4.24966 20.0392 4.20956 20.0028 4.17632C19.9664 4.14308 19.9238 4.11735 19.8774 4.10059L11.421 1.02255C11.3747 1.00571 11.3255 0.998175 11.2762 1.00037C11.227 1.00257 11.1786 1.01446 11.134 1.03536C11.0893 1.05626 11.0492 1.08576 11.016 1.12217C10.9828 1.15858 10.957 1.20118 10.9403 1.24755L8.57511 7.74976H3.25003C3.17017 7.74968 3.09236 7.7751 3.02794 7.82231C2.96352 7.86953 2.91586 7.93608 2.8919 8.01227L1.01688 14.0124C1.00556 14.0488 0.999873 14.0867 1 14.1249V24.625C1 24.7245 1.03951 24.8198 1.10984 24.8902C1.18017 24.9605 1.27555 25 1.37501 25H23.8753C23.9748 25 24.0702 24.9605 24.1405 24.8902C24.2108 24.8198 24.2503 24.7245 24.2503 24.625V14.1249C24.2504 14.0867 24.2448 14.0488 24.2334 14.0124ZM11.517 1.85543L19.2695 4.67697L16.7877 11.4998H15.9882L17.795 6.53512C17.8118 6.48879 17.8194 6.43958 17.8172 6.39033C17.815 6.34108 17.8031 6.29274 17.7822 6.24809C17.7613 6.20343 17.7318 6.16334 17.6954 6.1301C17.659 6.09686 17.6163 6.07112 17.57 6.05437C17.4772 6.02085 17.392 5.96938 17.3192 5.9029C17.2464 5.83642 17.1874 5.75623 17.1456 5.66693C17.1038 5.57762 17.08 5.48095 17.0756 5.38244C17.0712 5.28394 17.0863 5.18553 17.12 5.09285C17.1368 5.04654 17.1442 4.99737 17.142 4.94816C17.1398 4.89895 17.1279 4.85066 17.107 4.80605C17.0861 4.76144 17.0566 4.72138 17.0202 4.68817C16.9839 4.65495 16.9413 4.62923 16.895 4.61247L13.3752 3.32995C13.3288 3.31312 13.2796 3.30558 13.2304 3.30778C13.1811 3.30998 13.1328 3.32187 13.0881 3.34276C13.0435 3.36366 13.0034 3.39316 12.9701 3.42957C12.9369 3.46598 12.9112 3.50859 12.8944 3.55496C12.8609 3.64765 12.8094 3.73282 12.743 3.80561C12.6765 3.87841 12.5964 3.93738 12.5071 3.97918C12.4179 4.02097 12.3212 4.04476 12.2228 4.04918C12.1243 4.05361 12.0259 4.03858 11.9333 4.00496C11.8869 3.98813 11.8377 3.98059 11.7885 3.98279C11.7392 3.98499 11.6909 3.99688 11.6462 4.01777C11.6016 4.03867 11.5615 4.06817 11.5283 4.10458C11.495 4.14099 11.4693 4.1836 11.4525 4.22997L8.80461 11.4998H8.0066L11.517 1.85543ZM17.8572 10.7498H18.6252C18.7247 10.7498 18.8201 10.7893 18.8904 10.8596C18.9607 10.93 19.0002 11.0254 19.0002 11.1248C19.0002 11.2243 18.9607 11.3197 18.8904 11.39C18.8201 11.4603 18.7247 11.4998 18.6252 11.4998H17.5842L17.8572 10.7498ZM16.9782 6.58725L15.1898 11.4998H9.60224L12.0443 4.7906C12.311 4.8158 12.5795 4.76941 12.8223 4.65623C13.0651 4.54305 13.2733 4.36717 13.4254 4.14672L16.3336 5.20498C16.3082 5.47191 16.3546 5.74077 16.4679 5.98378C16.5813 6.22678 16.7574 6.43512 16.9782 6.58725ZM3.52566 8.49977H8.3006L7.75459 9.99979H6.62508C6.32671 9.99979 6.04055 10.1183 5.82957 10.3293C5.61859 10.5403 5.50006 10.8264 5.50006 11.1248C5.50006 11.4232 5.61859 11.7093 5.82957 11.9203C6.04055 12.1313 6.32671 12.2498 6.62508 12.2498H18.6252C18.9236 12.2498 19.2098 12.1313 19.4207 11.9203C19.6317 11.7093 19.7503 11.4232 19.7503 11.1248C19.7503 10.8264 19.6317 10.5403 19.4207 10.3293C19.2098 10.1183 18.9236 9.99979 18.6252 9.99979H18.1302L18.6762 8.49977H21.7247L23.3653 13.7498H1.88501L3.52566 8.49977ZM7.48159 10.7498L7.20859 11.4998H6.62508C6.52562 11.4998 6.43024 11.4603 6.35991 11.39C6.28958 11.3197 6.25007 11.2243 6.25007 11.1248C6.25007 11.0254 6.28958 10.93 6.35991 10.8596C6.43024 10.7893 6.52562 10.7498 6.62508 10.7498H7.48159ZM23.5003 24.25H1.75001V14.4999H23.5003V24.25Z" fill="#45AF63" stroke="#45AF63" stroke-width="0.25"/>
</svg>
