<svg width="26" height="25" viewBox="0 0 26 25" fill="none" xmlns="http://www.w3.org/2000/svg">
<path d="M7.10794 15.3629H8.18002L8.93785 16.0821C9.02925 16.1688 9.14653 16.2121 9.26386 16.2121C9.38114 16.2121 9.49842 16.1687 9.58983 16.0821L10.3477 15.3629H11.4197C11.6809 15.3629 11.8933 15.1505 11.8933 14.8894V13.8173L12.6123 13.0596C12.7859 12.8767 12.7859 12.5903 12.6124 12.4076L11.8933 11.6497V10.5777C11.8933 10.3165 11.6809 10.104 11.4197 10.104H10.3476L9.58983 9.38498C9.40702 9.21149 9.12066 9.21154 8.93785 9.38498L8.18002 10.104H7.10794C6.8468 10.104 6.63436 10.3165 6.63436 10.5777V11.6497L5.91535 12.4075C5.74177 12.5903 5.74177 12.8767 5.9153 13.0595L6.63436 13.8173V14.8894C6.63436 15.1505 6.8468 15.3629 7.10794 15.3629ZM6.57525 12.7335L7.20736 12.0674C7.29127 11.979 7.33749 11.8632 7.33749 11.7413V10.8072H8.27161C8.39349 10.8072 8.50927 10.7609 8.59758 10.6771L9.26381 10.045L9.93005 10.6772C10.0185 10.761 10.1342 10.8072 10.256 10.8072H11.1901V11.7413C11.1901 11.8632 11.2364 11.979 11.3202 12.0673L11.9523 12.7335L11.3202 13.3997C11.2363 13.488 11.1901 13.6038 11.1901 13.7257V14.6598H10.256C10.1341 14.6598 10.0184 14.706 9.92996 14.7899L9.26372 15.4221L8.59758 14.7899C8.50922 14.706 8.39344 14.6598 8.27152 14.6598H7.33739V13.7257C7.33739 13.6038 7.29117 13.488 7.20736 13.3998L6.57525 12.7335Z" fill="white" stroke="white" stroke-width="0.25"/>
<path d="M7.67712 13.1609C7.78264 13.2722 7.84071 13.4179 7.84071 13.5712V13.8068C7.84071 14.001 7.99812 14.1583 8.19228 14.1583H8.42782C8.58125 14.1583 8.72698 14.2165 8.83821 14.322L9.0199 14.4944C9.08773 14.5588 9.17478 14.591 9.26187 14.591C9.34896 14.591 9.43601 14.5588 9.50384 14.4944L9.68553 14.322C9.79676 14.2165 9.9425 14.1583 10.0959 14.1583H10.3314C10.5256 14.1583 10.683 14.001 10.683 13.8068V13.5712C10.683 13.4179 10.7412 13.2722 10.8467 13.1608L11.0191 12.9791C11.1479 12.8434 11.1478 12.6307 11.0191 12.4951L10.8466 12.3134C10.7412 12.2021 10.683 12.0564 10.683 11.9031V11.6675C10.683 11.4733 10.5256 11.316 10.3315 11.316H10.0959C9.94259 11.316 9.79681 11.2579 9.68553 11.1522L9.50389 10.9798C9.36823 10.8511 9.15551 10.8511 9.0199 10.9798L8.83821 11.1523C8.72698 11.2579 8.58125 11.316 8.42787 11.316H8.19232C7.99817 11.316 7.84076 11.4733 7.84076 11.6675V11.9031C7.84076 12.0564 7.78259 12.2022 7.67703 12.3135L7.50462 12.4952C7.3759 12.6308 7.3759 12.8435 7.50462 12.9791L7.67712 13.1609ZM8.53915 12.0144C8.80545 11.9918 9.05665 11.8883 9.26192 11.7161C9.46723 11.8882 9.71843 11.9918 9.98468 12.0144C10.0073 12.2806 10.1108 12.5317 10.283 12.7372C10.1109 12.9426 10.0073 13.1937 9.98468 13.4599C9.71839 13.4825 9.46718 13.586 9.26192 13.7582C9.05665 13.586 8.80545 13.4825 8.53915 13.4599C8.51656 13.1937 8.41306 12.9425 8.24089 12.7371C8.41301 12.5318 8.51651 12.2806 8.53915 12.0144Z" fill="white" stroke="white" stroke-width="0.25"/>
<path d="M24.6484 17.423C24.8426 17.423 25 17.2657 25 17.0714V15.1099C25 14.7868 24.7372 14.5239 24.4141 14.5239H18.0625C17.7394 14.5239 17.4766 14.7868 17.4766 15.1099V15.6723H16.1007C16.3937 14.0913 15.9748 12.4271 14.9069 11.1674L13.6601 9.69684C13.5346 9.54876 13.3128 9.53039 13.1647 9.65601C13.0165 9.78159 12.9983 10.0034 13.1238 10.1515L14.3706 11.6221C15.3292 12.7529 15.6869 14.2582 15.3839 15.6722H13.7025H13.2806C13.0864 15.6722 12.9291 15.8296 12.9291 16.0238C12.9291 16.218 13.0864 16.3754 13.2806 16.3754H13.7025H17.4766V20.6273H16.6252C16.5174 20.6273 16.4092 20.6387 16.3034 20.6612L10.1317 21.973C9.63864 22.0591 9.13919 21.9915 8.68675 21.7777L2.03435 18.6346C1.76735 18.4811 1.6406 18.1587 1.73271 17.8639C1.78596 17.6935 1.90267 17.5547 2.06139 17.473C2.22016 17.3913 2.401 17.3769 2.57055 17.4327L5.96397 18.5477C5.95502 18.6093 5.95014 18.6723 5.95014 18.7364C5.95014 19.4564 6.53599 20.0422 7.25608 20.0422H13.5039C13.6981 20.0422 13.8555 19.8849 13.8555 19.6907C13.8555 19.4965 13.6981 19.3391 13.5039 19.3391H7.25617C6.92378 19.3391 6.65336 19.0687 6.65336 18.7364C6.65336 18.404 6.92378 18.1335 7.25617 18.1335H9.69217C9.83833 18.1335 9.96925 18.0431 10.021 17.9064C10.304 17.1584 10.938 16.6076 11.7168 16.4331C11.9063 16.3906 12.0255 16.2026 11.983 16.0132C11.9406 15.8237 11.7525 15.7043 11.5631 15.7469C10.6333 15.9552 9.86275 16.5767 9.45977 17.4304H7.25617C6.85296 17.4304 6.49192 17.6141 6.25216 17.9022L3.64802 17.0466L3.48438 16.6989C2.6958 15.0234 2.96266 13.0302 4.16421 11.6211L7.45221 7.76536H11.1009L12.0629 8.90011C12.1885 9.04823 12.4104 9.06656 12.5584 8.94093C12.7065 8.81536 12.7248 8.59354 12.5993 8.44547L12.0384 7.78383L13.0213 8.23359C13.1505 8.2927 13.2861 8.32064 13.4198 8.32064C13.7843 8.32064 14.1336 8.11219 14.295 7.75959C14.4018 7.5262 14.4113 7.26515 14.3218 7.02455C14.2323 6.78398 14.0544 6.59269 13.8209 6.4859L12.9552 6.08976L13.7872 5.44078C13.9896 5.28295 14.1184 5.0557 14.1499 4.80098C14.1814 4.54626 14.1118 4.2945 13.9539 4.09214C13.7961 3.88973 13.5688 3.76092 13.3141 3.72942C13.0596 3.69787 12.8077 3.76748 12.6052 3.92541L11.5683 4.73423C11.4526 4.67367 11.3231 4.63664 11.1859 4.62787L12.4844 2.37891C12.5903 2.19548 12.5903 1.97639 12.4844 1.79297C12.3785 1.60955 12.1888 1.5 11.977 1.5H6.54911C6.33724 1.5 6.14758 1.60955 6.04164 1.79302C5.93575 1.97644 5.93575 2.19548 6.04164 2.37891L7.34008 4.62787C6.83889 4.65984 6.44064 5.07661 6.44064 5.58572C6.44064 5.81686 6.52272 6.02911 6.65922 6.19509C6.52277 6.36108 6.44064 6.57333 6.44064 6.80447C6.44064 7.08197 6.55961 7.33162 6.74833 7.50722L3.62922 11.1649C2.30782 12.7145 1.97125 14.8787 2.73949 16.7494C2.40443 16.6532 2.05146 16.6873 1.73969 16.8477C1.41222 17.0162 1.17143 17.3026 1.0616 17.6541C0.869456 18.2689 1.13885 18.942 1.70219 19.2545C1.70885 19.2582 1.71564 19.2616 1.72253 19.2649L8.38642 22.4135C8.80605 22.6117 9.25694 22.7126 9.7136 22.7126C9.89528 22.7126 10.078 22.6966 10.26 22.6645C10.2639 22.6637 10.2679 22.663 10.2718 22.6621L16.4495 21.349C16.5072 21.3367 16.5663 21.3305 16.6252 21.3305H17.4766V22.682C17.4766 23.0051 17.7394 23.2679 18.0625 23.2679H24.4141C24.7372 23.2679 25 23.0051 25 22.682V18.7121C25 18.5179 24.8426 18.3605 24.6484 18.3605C24.4542 18.3605 24.2969 18.5179 24.2969 18.7121V22.5648H21.489L21.8311 22.2227C21.9249 22.1289 21.9766 22.0043 21.9766 21.8717C21.9766 21.7392 21.9249 21.6145 21.8312 21.5208L21.1901 20.8798L21.8311 20.2388C21.9249 20.1451 21.9766 20.0204 21.9766 19.8878C21.9766 19.7553 21.9249 19.6307 21.8312 19.5369L21.1901 18.8959L21.8312 18.2549C21.9249 18.1612 21.9766 18.0366 21.9766 17.904C21.9766 17.7715 21.9249 17.6468 21.8312 17.5531L21.1901 16.9121L21.8312 16.2711C21.9249 16.1774 21.9766 16.0527 21.9766 15.9202C21.9766 15.7876 21.9249 15.6629 21.8312 15.5693L21.489 15.2271H24.2969V17.0714C24.2969 17.2657 24.4542 17.423 24.6484 17.423ZM7.40158 6.54661H11.1243C11.2665 6.54661 11.3822 6.66225 11.3822 6.80442C11.3822 6.94659 11.2665 7.06223 11.1243 7.06223H7.40158C7.25941 7.06223 7.14377 6.94659 7.14377 6.80442C7.14377 6.66225 7.25946 6.54661 7.40158 6.54661ZM13.6627 7.26979C13.6868 7.33434 13.6842 7.40437 13.6555 7.46695C13.5964 7.59628 13.4431 7.65333 13.3139 7.59412H13.3138L12.06 7.02037C12.076 6.95081 12.0853 6.87872 12.0853 6.80437C12.0853 6.67176 12.0583 6.54534 12.0095 6.43031L13.5284 7.12528C13.591 7.15397 13.6387 7.20525 13.6627 7.26979ZM13.0376 4.4798C13.0834 4.44408 13.1386 4.42523 13.1957 4.42523C13.2063 4.42523 13.2171 4.42589 13.2279 4.4272C13.2962 4.43569 13.3572 4.47023 13.3995 4.52451C13.4418 4.5788 13.4605 4.64639 13.4521 4.71473C13.4436 4.78308 13.4091 4.84401 13.3548 4.88634L12.2346 5.76009L12.0795 5.68912C12.0832 5.65509 12.0853 5.62064 12.0853 5.58567C12.0853 5.4735 12.065 5.36625 12.0295 5.26612L13.0376 4.4798ZM11.7739 2.20312L10.3758 4.62473H8.15017L6.75208 2.20312H11.7739ZM7.40158 5.32786H11.1243C11.2665 5.32786 11.3822 5.4435 11.3822 5.58567C11.3822 5.72784 11.2665 5.84348 11.1243 5.84348H7.40158C7.25941 5.84348 7.14377 5.72784 7.14377 5.58567C7.14377 5.4435 7.25946 5.32786 7.40158 5.32786ZM19.3295 18.2549L19.9705 18.8959L19.3293 19.5371C19.136 19.7306 19.136 20.0453 19.3294 20.2388L19.9705 20.8798L19.3293 21.521C19.136 21.7145 19.136 22.0292 19.3294 22.2227L19.6716 22.5649H18.1797V15.2271H19.6716L19.3294 15.5692C19.136 15.7627 19.136 16.0775 19.3294 16.2711L19.9705 16.9121L19.3293 17.5532C19.1361 17.7466 19.1361 18.0614 19.3295 18.2549ZM20.5803 22.4791L19.9729 21.8717L20.5803 21.2643L21.1878 21.8717L20.5803 22.4791ZM20.5803 20.4952L19.9729 19.8878L20.5803 19.2804L21.1878 19.8878L20.5803 20.4952ZM20.5803 18.5114L19.9729 17.904L20.5803 17.2966L21.1878 17.904L20.5803 18.5114ZM20.5803 16.5276L19.9729 15.9202L20.5803 15.3127L21.1878 15.9202L20.5803 16.5276Z" fill="white" stroke="white" stroke-width="0.25"/>
</svg>
