<svg width="26" height="24" viewBox="0 0 26 24" fill="none" xmlns="http://www.w3.org/2000/svg">
<path d="M7.10791 14.8629H8.17999L8.93781 15.582C9.02922 15.6688 9.1465 15.7121 9.26383 15.7121C9.38111 15.7121 9.49839 15.6687 9.5898 15.582L10.3476 14.8629H11.4197C11.6808 14.8629 11.8933 14.6504 11.8933 14.3893V13.3172L12.6123 12.5595C12.7859 12.3767 12.7859 12.0902 12.6123 11.9075L11.8933 11.1497V10.0776C11.8933 9.81646 11.6808 9.60397 11.4197 9.60397H10.3476L9.5898 8.88491C9.40699 8.71143 9.12063 8.71147 8.93781 8.88491L8.17999 9.60397H7.10791C6.84677 9.60397 6.63433 9.81641 6.63433 10.0776V11.1497L5.91532 11.9074C5.74174 12.0902 5.74174 12.3767 5.91527 12.5594L6.63433 13.3172V14.3893C6.63433 14.6504 6.84677 14.8629 7.10791 14.8629ZM6.57522 12.2334L7.20733 11.5673C7.29124 11.4789 7.33746 11.3631 7.33746 11.2412V10.3071H8.27158C8.39346 10.3071 8.50924 10.2609 8.59755 10.1771L9.26378 9.54491L9.93002 10.1771C10.0184 10.2609 10.1342 10.3071 10.256 10.3071H11.1901V11.2412C11.1901 11.3631 11.2363 11.4789 11.3201 11.5672L11.9523 12.2334L11.3202 12.8996C11.2363 12.988 11.1901 13.1038 11.1901 13.2256V14.1598H10.2559C10.1341 14.1598 10.0184 14.2059 9.92992 14.2898L9.26369 14.922L8.59755 14.2899C8.50919 14.206 8.39341 14.1598 8.27149 14.1598H7.33736V13.2256C7.33736 13.1038 7.29114 12.988 7.20733 12.8997L6.57522 12.2334Z" fill="#4E4E4E" stroke="#4E4E4E" stroke-width="0.25"/>
<path d="M7.67718 12.6608C7.7827 12.7721 7.84077 12.9178 7.84077 13.0711V13.3066C7.84077 13.5008 7.99818 13.6582 8.19234 13.6582H8.42788C8.58131 13.6582 8.72704 13.7163 8.83828 13.8219L9.01996 13.9943C9.08779 14.0586 9.17484 14.0908 9.26193 14.0908C9.34903 14.0908 9.43607 14.0586 9.5039 13.9943L9.68559 13.8219C9.79682 13.7163 9.94256 13.6582 10.0959 13.6582H10.3315C10.5256 13.6582 10.683 13.5008 10.683 13.3066V13.0711C10.683 12.9178 10.7413 12.772 10.8468 12.6606L11.0192 12.479C11.1479 12.3433 11.1479 12.1306 11.0192 11.995L10.8467 11.8132C10.7412 11.7019 10.6831 11.5562 10.6831 11.4029V11.1674C10.6831 10.9732 10.5257 10.8158 10.3315 10.8158H10.096C9.94265 10.8158 9.79687 10.7577 9.68559 10.6521L9.50395 10.4797C9.36829 10.351 9.15557 10.351 9.01996 10.4797L8.83828 10.6521C8.72704 10.7577 8.58131 10.8158 8.42793 10.8158H8.19238C7.99823 10.8158 7.84082 10.9732 7.84082 11.1674V11.4029C7.84082 11.5563 7.78265 11.702 7.67709 11.8133L7.50468 11.995C7.37596 12.1307 7.37596 12.3434 7.50468 12.479L7.67718 12.6608ZM8.53921 11.5142C8.80551 11.4916 9.05671 11.3881 9.26198 11.216C9.46729 11.3881 9.71849 11.4916 9.98474 11.5142C10.0073 11.7804 10.1108 12.0316 10.2831 12.237C10.1109 12.4424 10.0074 12.6936 9.98474 12.9598C9.71845 12.9824 9.46724 13.0859 9.26198 13.258C9.05671 13.0859 8.80551 12.9824 8.53921 12.9598C8.51662 12.6935 8.41312 12.4424 8.24095 12.237C8.41307 12.0316 8.51657 11.7805 8.53921 11.5142Z" fill="#4E4E4E" stroke="#4E4E4E" stroke-width="0.25"/>
<path d="M24.6484 16.923C24.8426 16.923 25 16.7657 25 16.5714V14.6099C25 14.2868 24.7372 14.0239 24.4141 14.0239H18.0625C17.7394 14.0239 17.4766 14.2868 17.4766 14.6099V15.1723H16.1007C16.3937 13.5913 15.9748 11.9271 14.9069 10.6674L13.6601 9.19684C13.5346 9.04876 13.3128 9.03039 13.1647 9.15601C13.0165 9.28159 12.9983 9.5034 13.1238 9.65148L14.3706 11.1221C15.3292 12.2529 15.6869 13.7582 15.3839 15.1722H13.7025H13.2806C13.0864 15.1722 12.9291 15.3296 12.9291 15.5238C12.9291 15.718 13.0864 15.8754 13.2806 15.8754H13.7025H17.4766V20.1273H16.6252C16.5174 20.1273 16.4092 20.1387 16.3034 20.1612L10.1317 21.473C9.63864 21.5591 9.13919 21.4915 8.68675 21.2777L2.03435 18.1346C1.76735 17.9811 1.6406 17.6587 1.73271 17.3639C1.78596 17.1935 1.90267 17.0547 2.06139 16.973C2.22016 16.8913 2.401 16.8769 2.57055 16.9327L5.96397 18.0477C5.95502 18.1093 5.95014 18.1723 5.95014 18.2364C5.95014 18.9564 6.53599 19.5422 7.25608 19.5422H13.5039C13.6981 19.5422 13.8555 19.3849 13.8555 19.1907C13.8555 18.9965 13.6981 18.8391 13.5039 18.8391H7.25617C6.92378 18.8391 6.65336 18.5687 6.65336 18.2364C6.65336 17.904 6.92378 17.6335 7.25617 17.6335H9.69217C9.83833 17.6335 9.96925 17.5431 10.021 17.4064C10.304 16.6584 10.938 16.1076 11.7168 15.9331C11.9063 15.8906 12.0255 15.7026 11.983 15.5132C11.9406 15.3237 11.7525 15.2043 11.5631 15.2469C10.6333 15.4552 9.86275 16.0767 9.45977 16.9304H7.25617C6.85296 16.9304 6.49192 17.1141 6.25216 17.4022L3.64802 16.5466L3.48438 16.1989C2.6958 14.5234 2.96266 12.5302 4.16421 11.1211L7.45221 7.26536H11.1009L12.0629 8.40011C12.1885 8.54823 12.4104 8.56656 12.5584 8.44093C12.7065 8.31536 12.7248 8.09354 12.5993 7.94547L12.0384 7.28383L13.0213 7.73359C13.1505 7.7927 13.2861 7.82064 13.4198 7.82064C13.7843 7.82064 14.1336 7.61219 14.295 7.25959C14.4018 7.0262 14.4113 6.76515 14.3218 6.52455C14.2323 6.28398 14.0544 6.09269 13.8209 5.9859L12.9552 5.58976L13.7872 4.94078C13.9896 4.78295 14.1184 4.5557 14.1499 4.30098C14.1814 4.04626 14.1118 3.7945 13.9539 3.59214C13.7961 3.38973 13.5688 3.26092 13.3141 3.22942C13.0596 3.19787 12.8077 3.26748 12.6052 3.42541L11.5683 4.23423C11.4526 4.17367 11.3231 4.13664 11.1859 4.12787L12.4844 1.87891C12.5903 1.69548 12.5903 1.47639 12.4844 1.29297C12.3785 1.10955 12.1888 1 11.977 1H6.54911C6.33724 1 6.14758 1.10955 6.04164 1.29302C5.93575 1.47644 5.93575 1.69548 6.04164 1.87891L7.34008 4.12787C6.83889 4.15984 6.44064 4.57661 6.44064 5.08572C6.44064 5.31686 6.52272 5.52911 6.65922 5.69509C6.52277 5.86108 6.44064 6.07333 6.44064 6.30447C6.44064 6.58197 6.55961 6.83162 6.74833 7.00722L3.62922 10.6649C2.30782 12.2145 1.97125 14.3787 2.73949 16.2494C2.40443 16.1532 2.05146 16.1873 1.73969 16.3477C1.41222 16.5162 1.17143 16.8026 1.0616 17.1541C0.869456 17.7689 1.13885 18.442 1.70219 18.7545C1.70885 18.7582 1.71564 18.7616 1.72253 18.7649L8.38642 21.9135C8.80605 22.1117 9.25694 22.2126 9.7136 22.2126C9.89528 22.2126 10.078 22.1966 10.26 22.1645C10.2639 22.1637 10.2679 22.163 10.2718 22.1621L16.4495 20.849C16.5072 20.8367 16.5663 20.8305 16.6252 20.8305H17.4766V22.182C17.4766 22.5051 17.7394 22.7679 18.0625 22.7679H24.4141C24.7372 22.7679 25 22.5051 25 22.182V18.2121C25 18.0179 24.8426 17.8605 24.6484 17.8605C24.4542 17.8605 24.2969 18.0179 24.2969 18.2121V22.0648H21.489L21.8311 21.7227C21.9249 21.6289 21.9766 21.5043 21.9766 21.3717C21.9766 21.2392 21.9249 21.1145 21.8312 21.0208L21.1901 20.3798L21.8311 19.7388C21.9249 19.6451 21.9766 19.5204 21.9766 19.3878C21.9766 19.2553 21.9249 19.1307 21.8312 19.0369L21.1901 18.3959L21.8312 17.7549C21.9249 17.6612 21.9766 17.5366 21.9766 17.404C21.9766 17.2715 21.9249 17.1468 21.8312 17.0531L21.1901 16.4121L21.8312 15.7711C21.9249 15.6774 21.9766 15.5527 21.9766 15.4202C21.9766 15.2876 21.9249 15.1629 21.8312 15.0693L21.489 14.7271H24.2969V16.5714C24.2969 16.7657 24.4542 16.923 24.6484 16.923ZM7.40158 6.04661H11.1243C11.2665 6.04661 11.3822 6.16225 11.3822 6.30442C11.3822 6.44659 11.2665 6.56223 11.1243 6.56223H7.40158C7.25941 6.56223 7.14377 6.44659 7.14377 6.30442C7.14377 6.16225 7.25946 6.04661 7.40158 6.04661ZM13.6627 6.76979C13.6868 6.83434 13.6842 6.90437 13.6555 6.96695C13.5964 7.09628 13.4431 7.15333 13.3139 7.09412H13.3138L12.06 6.52037C12.076 6.45081 12.0853 6.37872 12.0853 6.30437C12.0853 6.17176 12.0583 6.04534 12.0095 5.93031L13.5284 6.62528C13.591 6.65397 13.6387 6.70525 13.6627 6.76979ZM13.0376 3.9798C13.0834 3.94408 13.1386 3.92523 13.1957 3.92523C13.2063 3.92523 13.2171 3.92589 13.2279 3.9272C13.2962 3.93569 13.3572 3.97023 13.3995 4.02451C13.4418 4.0788 13.4605 4.14639 13.4521 4.21473C13.4436 4.28308 13.4091 4.34401 13.3548 4.38634L12.2346 5.26009L12.0795 5.18912C12.0832 5.15509 12.0853 5.12064 12.0853 5.08567C12.0853 4.9735 12.065 4.86625 12.0295 4.76612L13.0376 3.9798ZM11.7739 1.70312L10.3758 4.12473H8.15017L6.75208 1.70312H11.7739ZM7.40158 4.82786H11.1243C11.2665 4.82786 11.3822 4.9435 11.3822 5.08567C11.3822 5.22784 11.2665 5.34348 11.1243 5.34348H7.40158C7.25941 5.34348 7.14377 5.22784 7.14377 5.08567C7.14377 4.9435 7.25946 4.82786 7.40158 4.82786ZM19.3295 17.7549L19.9705 18.3959L19.3293 19.0371C19.136 19.2306 19.136 19.5453 19.3294 19.7388L19.9705 20.3798L19.3293 21.021C19.136 21.2145 19.136 21.5292 19.3294 21.7227L19.6716 22.0649H18.1797V14.7271H19.6716L19.3294 15.0692C19.136 15.2627 19.136 15.5775 19.3294 15.7711L19.9705 16.4121L19.3293 17.0532C19.1361 17.2466 19.1361 17.5614 19.3295 17.7549ZM20.5803 21.9791L19.9729 21.3717L20.5803 20.7643L21.1878 21.3717L20.5803 21.9791ZM20.5803 19.9952L19.9729 19.3878L20.5803 18.7804L21.1878 19.3878L20.5803 19.9952ZM20.5803 18.0114L19.9729 17.404L20.5803 16.7966L21.1878 17.404L20.5803 18.0114ZM20.5803 16.0276L19.9729 15.4202L20.5803 14.8127L21.1878 15.4202L20.5803 16.0276Z" fill="#4E4E4E" stroke="#4E4E4E" stroke-width="0.25"/>
</svg>
